<?xml version="1.0" encoding="UTF-8"?>
<svg id="Layer_1" xmlns="http://www.w3.org/2000/svg" version="1.1" viewBox="0 0 830.7 827.5">
  <!-- Generator: Adobe Illustrator 30.2.1, SVG Export Plug-In . SVG Version: 2.1.1 Build 1)  -->
  <defs>
    <style>
      .st0 {
        fill: #fff;
      }

      .st1 {
        fill: #333;
      }
    </style>
  </defs>
  <g>
    <path class="st1" d="M415.3,551.7s-.9,0-2.5,0c-1.6,0-4.1,0-7.2-.3-6.3-.4-15.7-1.4-27.1-4.5-1.4-.4-2.9-.8-4.4-1.2-1.5-.5-3-1-4.5-1.5-1.6-.5-3.1-1.1-4.7-1.8-1.6-.6-3.2-1.2-4.9-2-6.6-2.8-13.5-6.4-20.4-10.9-13.9-8.9-28-21.7-39.7-38.5-5.8-8.4-10.9-17.9-14.9-28.2-4.1-10.3-6.9-21.5-8.4-33.2-.2-1.5-.3-2.9-.5-4.4s-.3-3-.4-4.5c0-1.5-.1-3-.2-4.5v-2.3c0,0,0-.3,0-.3v-2c0-1.5,0-3,0-4.5,0-1.5.2-3.1.3-4.6.1-3.1.5-6.1.9-9.2.9-6.1,2-12.4,3.8-18.5.8-3.1,1.8-6.1,2.8-9.1.5-1.5,1.1-3,1.7-4.5l.9-2.3,1-2.2c5.1-11.9,12-23.3,20.4-33.7,1.1-1.3,2.2-2.5,3.2-3.8,1.1-1.3,2.3-2.5,3.4-3.7l1.7-1.8,1.8-1.8c1.2-1.2,2.4-2.4,3.7-3.5,5-4.6,10.4-8.7,16-12.6l4.3-2.8c1.5-.9,3-1.8,4.4-2.6.7-.4,1.5-.9,2.2-1.3l2.3-1.2c1.5-.8,3-1.6,4.6-2.3,6.2-3,12.7-5.4,19.3-7.5,6.6-2.1,13.4-3.5,20.3-4.6l5.2-.7c1.7-.2,3.5-.3,5.2-.5,1.7-.1,3.5-.3,5.2-.3h5.3c0-.1,5.1,0,5.1,0,.9,0,1.7,0,2.6.1l2.6.2,2.6.2c.9,0,1.8.1,2.6.3l5.2.7c6.9,1.1,13.7,2.5,20.3,4.6,6.6,2.1,13.1,4.5,19.3,7.5,6.2,3,12.2,6.4,17.9,10.3,5.6,3.9,11,8,16,12.6,1.3,1.1,2.4,2.3,3.7,3.5l1.8,1.8,1.7,1.8c1.1,1.2,2.3,2.4,3.4,3.7,1.1,1.3,2.2,2.6,3.2,3.8,8.4,10.4,15.3,21.8,20.4,33.7l1,2.2.9,2.3c.6,1.5,1.2,3,1.7,4.5,1,3.1,2,6.1,2.8,9.1,1.8,6.1,2.9,12.3,3.8,18.5.3,3.1.8,6.1.9,9.2,0,1.5.2,3.1.3,4.6,0,1.5,0,3,0,4.6,0,.8,0,1.5,0,2.3v2.2c-.2,1.5-.2,3-.3,4.4-.1,1.5-.3,3-.4,4.5-.1,1.5-.2,3-.5,4.4-1.5,11.7-4.3,22.9-8.4,33.2-4.1,10.3-9.2,19.7-14.9,28.2-11.7,16.8-25.8,29.6-39.7,38.6-7,4.5-13.8,8.1-20.4,10.9-1.6.8-3.3,1.4-4.9,2-1.6.6-3.1,1.3-4.7,1.8-1.5.5-3.1,1-4.5,1.5-1.5.4-3,.8-4.4,1.2-11.5,3.2-20.8,4.2-27.1,4.5-3.2.3-5.6.2-7.2.3-1.6,0-2.5,0-2.5,0h0ZM415.3,551.3s.8,0,2.5,0c1.6,0,4.1,0,7.2-.3,6.3-.4,15.6-1.4,27-4.6,1.4-.4,2.9-.8,4.4-1.2,1.5-.5,3-1,4.5-1.5,1.6-.5,3.1-1.1,4.7-1.8,1.6-.6,3.2-1.2,4.8-2,6.5-2.8,13.4-6.5,20.2-11,13.7-9,27.7-21.8,39-38.6,5.6-8.4,10.5-17.8,14.4-28,3.9-10.2,6.5-21.3,7.8-32.8.2-1.4.3-2.9.4-4.3.1-1.5.2-2.9.3-4.4,0-1.5,0-3,.1-4.4v-2.2c0-.7,0-1.5,0-2.2,0-1.5,0-3-.1-4.5,0-1.5-.2-3-.3-4.5-.2-3-.6-6-1-9-1-6-2.1-12.1-3.9-18-.8-3-1.9-5.9-2.9-8.9-.5-1.5-1.1-2.9-1.7-4.4l-.9-2.2-1-2.2c-5.1-11.6-12-22.6-20.3-32.5-4.2-5-8.8-9.7-13.6-14.1-4.9-4.4-10.2-8.4-15.7-12.1-5.5-3.7-11.4-6.9-17.4-9.8-6-2.9-12.3-5.2-18.7-7.2-6.4-2-13-3.3-19.7-4.4-6.7-1-13.4-1.4-20.2-1.5-6.7,0-13.5.5-20.1,1.5-6.6,1-13.2,2.4-19.7,4.4-6.4,2-12.7,4.3-18.7,7.2-6,2.9-11.9,6.1-17.4,9.8-5.5,3.7-10.8,7.7-15.7,12.1-4.9,4.4-9.5,9.1-13.6,14.1-8.4,10-15.2,21-20.3,32.5l-1,2.2-.9,2.2c-.6,1.5-1.2,2.9-1.7,4.4-1,3-2.1,5.9-2.9,8.9-1.8,6-3,12-3.9,18-.4,3-.8,6-1,9-.1,1.5-.3,3-.3,4.5,0,1.5,0,3-.1,4.5,0,.7,0,1.5,0,2.2v2.2c0,1.5.1,3,.2,4.4.1,1.5.2,2.9.3,4.4.1,1.5.2,2.9.4,4.3,1.4,11.5,4,22.6,7.9,32.8,3.9,10.2,8.8,19.6,14.4,28,11.3,16.9,25.3,29.6,39,38.6,6.9,4.5,13.7,8.2,20.2,11,1.6.8,3.2,1.4,4.8,2,1.6.6,3.1,1.3,4.7,1.8,1.5.5,3,1,4.5,1.5,1.5.4,3,.8,4.4,1.2,11.4,3.2,20.7,4.2,27,4.6,3.1.3,5.6.2,7.2.3,1.6,0,2.5,0,2.5,0h0Z"/>
    <path class="st1" d="M415.3,223.8s1.2,0,3.4,0c1.1,0,2.5,0,4.2.1.8,0,1.7,0,2.7,0,1,0,2,.1,3.1.2,8.7.6,21.5,1.9,37.3,6.3,2,.6,4,1.1,6,1.7,2,.7,4.1,1.4,6.3,2.1,2.1.7,4.3,1.6,6.5,2.4,2.2.9,4.5,1.7,6.7,2.8,9,3.9,18.5,8.8,28.1,15,19.1,12.3,38.5,29.9,54.4,53.1,7.9,11.6,14.9,24.6,20.4,38.8.8,1.7,1.3,3.6,2,5.4.6,1.8,1.3,3.6,1.9,5.5.5,1.9,1.1,3.7,1.6,5.6.3.9.5,1.9.8,2.8.2.9.5,1.9.7,2.9.5,1.9.9,3.8,1.4,5.7.5,1.9.8,3.9,1.2,5.8.2,1,.4,2,.5,2.9l.3,1.5.2,1.5c.3,2,.5,4,.8,6,.3,2,.5,4,.6,6,.2,2,.4,4.1.5,6.1,0,2,.1,4.1.2,6.2s0,2.1.1,3.1c0,0,0,.3,0,.4v1.1s0,1.5,0,1.5c0,2,0,4.1,0,6.2,0,2.1-.2,4.2-.4,6.3-.2,4.2-.8,8.4-1.3,12.6-1.2,8.4-2.8,16.9-5.2,25.3-1,4.2-2.5,8.3-3.9,12.5-.7,2.1-1.6,4.1-2.3,6.2l-1.2,3.1-1.3,3c-7,16.3-16.5,31.8-28.1,46-1.5,1.7-3,3.5-4.5,5.2-1.5,1.7-3.1,3.4-4.7,5-.8.8-1.6,1.7-2.4,2.5l-2.5,2.4-2.5,2.4c-.8.8-1.7,1.6-2.5,2.4-1.7,1.5-3.5,3-5.2,4.6-1.8,1.5-3.6,2.9-5.4,4.4l-2.7,2.2-2.8,2-2.8,2c-1,.7-1.9,1.4-2.9,2-2,1.3-3.9,2.5-5.9,3.8-2,1.2-4,2.4-6.1,3.6-1,.6-2,1.2-3,1.8l-3.1,1.6-3.1,1.6c-1,.5-2.1,1.1-3.2,1.5-2.1,1-4.3,2-6.4,2.9-2.2.9-4.4,1.8-6.6,2.7-1.1.4-2.2.9-3.3,1.3l-3.4,1.1-3.4,1.1c-1.1.4-2.2.8-3.4,1.1l-6.8,2c-2.3.6-4.6,1.1-6.9,1.7l-3.5.8-3.5.6c-2.3.4-4.7.9-7,1.2l-7.1.9c-1.2.2-2.4.3-3.5.4l-3.6.3-3.6.3c-1.2,0-2.4,0-3.6.1l-7.2.2-7-.2c-1.2,0-2.3,0-3.5-.1l-3.6-.3-3.6-.3c-1.2,0-2.4-.2-3.6-.4l-7.1-.9c-2.4-.3-4.7-.8-7-1.2l-3.5-.6-3.5-.8c-2.3-.6-4.6-1-6.9-1.7l-6.8-2c-1.1-.3-2.3-.7-3.4-1.1l-3.4-1.1-3.4-1.1c-1.1-.4-2.2-.9-3.3-1.3-2.2-.9-4.4-1.7-6.6-2.7-2.1-1-4.3-2-6.4-2.9-1.1-.5-2.1-1-3.2-1.6l-3.1-1.6-3.1-1.6c-1-.6-2-1.2-3-1.8-2-1.2-4.1-2.3-6.1-3.6-2-1.3-3.9-2.5-5.9-3.8-1-.6-1.9-1.3-2.9-2l-2.8-2-2.8-2-2.7-2.2c-1.8-1.5-3.7-2.9-5.4-4.4-1.8-1.5-3.5-3.1-5.2-4.6-.9-.8-1.7-1.6-2.5-2.4l-2.5-2.4-2.5-2.4c-.8-.8-1.6-1.7-2.4-2.5-1.6-1.7-3.2-3.3-4.7-5-1.5-1.8-3-3.5-4.5-5.2-11.6-14.2-21.1-29.7-28.1-46l-1.3-3-1.2-3.1c-.8-2.1-1.6-4.1-2.3-6.2-1.3-4.2-2.8-8.3-3.9-12.5-2.4-8.4-4-16.9-5.2-25.3-.5-4.2-1.1-8.4-1.3-12.6-.1-2.1-.3-4.2-.4-6.3,0-2.1,0-4.2-.1-6.2,0-1.1,0-2,0-3.2,0-1,0-2,.1-3.1,0-2,.1-4.1.2-6.1.1-2,.3-4.1.5-6.1.2-2,.3-4.1.6-6.1.3-2,.6-4,.8-6l.2-1.5.3-1.5c.2-1,.4-2,.6-2.9.4-2,.7-3.9,1.1-5.8.5-1.9.9-3.8,1.4-5.7.2-1,.4-1.9.7-2.9.3-.9.6-1.9.8-2.8.6-1.9,1.1-3.7,1.6-5.6.6-1.8,1.3-3.6,1.9-5.5.6-1.8,1.2-3.6,2-5.4,5.5-14.1,12.5-27.1,20.4-38.8,15.9-23.2,35.3-40.8,54.4-53.1,9.5-6.2,19-11.2,28.1-15,2.2-1.1,4.5-1.9,6.7-2.8,2.2-.9,4.3-1.7,6.5-2.4,2.1-.7,4.2-1.4,6.3-2.1,2.1-.6,4.1-1.2,6-1.7,15.8-4.4,28.6-5.7,37.3-6.3,1.1,0,2.1-.2,3.1-.2,1,0,1.9,0,2.7,0,1.7,0,3.1,0,4.2-.1,2.3,0,3.4,0,3.4,0h0ZM415.3,224.3s-1.2,0-3.4,0c-1.1,0-2.5,0-4.2.1-.8,0-1.7,0-2.7.1-1,0-2,.1-3.1.2-8.7.6-21.5,2-37.2,6.4-2,.6-4,1.1-6,1.7-2,.7-4.1,1.4-6.2,2.1-2.1.7-4.3,1.6-6.5,2.4-2.2.9-4.4,1.7-6.7,2.8-9,3.9-18.4,8.9-27.9,15.1-9.5,6.2-19,13.7-28.1,22.6-9.1,8.9-17.9,19.1-25.6,30.7-7.7,11.6-14.5,24.6-19.8,38.6-.7,1.7-1.3,3.5-1.9,5.3-.6,1.8-1.2,3.6-1.8,5.4-.5,1.8-1,3.7-1.6,5.5-.3.9-.5,1.9-.8,2.8-.2.9-.4,1.9-.7,2.8-.4,1.9-.9,3.8-1.3,5.7-.4,1.9-.7,3.9-1.1,5.8-.2,1-.4,1.9-.5,2.9l-.3,1.5-.2,1.5c-.2,2-.5,3.9-.8,5.9-.3,2-.4,4-.6,6-.1,2-.3,4-.4,6,0,2-.1,4.1-.1,6.1,0,1,0,2,0,3.1,0,1,0,2,0,3.1,0,2,.1,4.1.2,6.2,0,2.1.3,4.1.4,6.2.2,4.1.9,8.3,1.4,12.4,1.3,8.3,2.9,16.6,5.4,24.8,1.1,4.1,2.6,8.2,3.9,12.3.8,2,1.6,4,2.4,6l1.2,3,1.3,3c7,15.9,16.5,31.1,28,44.9,1.5,1.7,2.9,3.4,4.4,5.1,1.5,1.7,3.1,3.3,4.6,4.9.8.8,1.5,1.6,2.3,2.4l2.5,2.3,2.5,2.3c.8.8,1.6,1.6,2.5,2.3,1.7,1.5,3.4,3,5.1,4.5,1.7,1.5,3.6,2.8,5.3,4.2l2.7,2.1,2.8,2,2.8,2c.9.7,1.9,1.3,2.8,1.9,1.9,1.2,3.9,2.5,5.8,3.7,1.9,1.2,4,2.3,5.9,3.5,1,.6,2,1.2,3,1.7l3.1,1.6,3.1,1.6c1,.5,2,1,3.1,1.5l6.3,2.8c2.1.9,4.3,1.7,6.4,2.6,1.1.4,2.1.9,3.2,1.2l3.3,1.1,3.3,1.1c1.1.4,2.2.8,3.3,1l6.7,1.9c2.2.6,4.5,1.1,6.8,1.6l3.4.8,3.4.6c2.3.4,4.6.9,6.9,1.2,9.2,1.3,18.5,1.9,27.8,2,9.3-.1,18.6-.7,27.8-2,2.3-.3,4.6-.8,6.9-1.2l3.4-.6,3.4-.8c2.2-.5,4.5-1,6.8-1.6l6.7-1.9c1.1-.3,2.2-.7,3.3-1l3.3-1.1,3.3-1.1c1.1-.4,2.1-.8,3.2-1.2,2.1-.9,4.3-1.7,6.4-2.6l6.3-2.8c1.1-.5,2.1-1,3.1-1.5l3.1-1.6,3.1-1.6c1-.5,2-1.1,3-1.7,2-1.2,4-2.2,5.9-3.5,1.9-1.2,3.9-2.5,5.8-3.7,1-.6,1.9-1.3,2.8-1.9l2.8-2,2.8-2,2.7-2.1c1.8-1.4,3.6-2.8,5.3-4.2,1.7-1.5,3.4-3,5.2-4.5.9-.7,1.7-1.5,2.5-2.3l2.5-2.3,2.5-2.3c.8-.8,1.6-1.6,2.3-2.4,1.5-1.6,3.1-3.2,4.6-4.9,1.5-1.7,2.9-3.4,4.4-5.1,11.5-13.8,21-28.9,28-44.9l1.3-3,1.2-3c.8-2,1.6-4,2.4-6,1.3-4.1,2.9-8.1,4-12.3,2.5-8.2,4.1-16.5,5.4-24.8.5-4.2,1.2-8.3,1.4-12.4.1-2.1.3-4.1.4-6.2,0-2.1.1-4.1.2-6.2,0-1,0-2.1,0-3.1,0-1,0-2,0-3.1,0-2,0-4.1-.2-6.1-.1-2-.3-4-.4-6-.2-2-.3-4-.6-6-.2-2-.5-4-.8-5.9l-.2-1.5-.3-1.5c-.2-1-.3-1.9-.5-2.9-.4-1.9-.7-3.9-1.1-5.8-.4-1.9-.9-3.8-1.3-5.7-.2-.9-.4-1.9-.7-2.8-.3-.9-.5-1.9-.8-2.8-.5-1.9-1-3.7-1.6-5.5-.6-1.8-1.2-3.6-1.8-5.4-.6-1.8-1.2-3.6-1.9-5.3-5.3-14.1-12.1-27-19.8-38.6s-16.5-21.8-25.6-30.7c-9.1-8.9-18.7-16.3-28.1-22.6-9.5-6.2-18.9-11.2-27.9-15.1-2.2-1.1-4.5-1.9-6.7-2.8-2.2-.9-4.3-1.7-6.5-2.4-2.1-.7-4.2-1.4-6.2-2.1-2.1-.6-4.1-1.2-6-1.7-15.7-4.4-28.5-5.8-37.2-6.4-1.1,0-2.1-.2-3.1-.2-1,0-1.9,0-2.7-.1-1.7,0-3.1,0-4.2-.1-2.2,0-3.4,0-3.4,0h0Z"/>
    <path class="st1" d="M650.5,413.7s0,1.5,0,4.3c0,1.4,0,3.1-.1,5.2,0,1,0,2.2-.1,3.4,0,1.2-.2,2.5-.3,3.8-.7,10.9-2.4,26.9-7.9,46.5-.7,2.5-1.4,5-2.1,7.5-.8,2.5-1.7,5.1-2.6,7.8-.8,2.7-1.9,5.4-3,8.1-1.1,2.7-2.1,5.6-3.4,8.3-4.8,11.3-11,23.1-18.8,35-7.7,11.9-17,23.9-28.1,35.4-11.1,11.5-23.8,22.6-38.3,32.4-14.5,9.8-30.7,18.5-48.4,25.3-2.2.9-4.5,1.6-6.7,2.4-2.3.8-4.5,1.6-6.8,2.3-2.3.7-4.6,1.3-7,2s-2.3.7-3.5,1c-1.2.3-2.4.6-3.6.9-2.4.6-4.8,1.1-7.2,1.7-2.4.6-4.9.9-7.3,1.4-1.2.2-2.4.5-3.7.7l-1.8.3-1.9.2c-2.5.3-5,.7-7.5,1-2.5.4-5,.5-7.5.8-2.5.2-5.1.4-7.6.6-2.5,0-5.1.2-7.7.2-1.3,0-2.6,0-3.9.1-.1,0-.4,0-.5,0h-1.4s-1.9,0-1.9,0c-2.6,0-5.1,0-7.7-.1-2.6,0-5.2-.3-7.8-.5-5.3-.2-10.5-1-15.7-1.6-10.5-1.6-21-3.5-31.4-6.6-5.2-1.3-10.4-3.2-15.6-4.9-2.6-.9-5.1-2-7.7-2.9l-3.9-1.5-3.8-1.7c-20.3-8.7-39.6-20.6-57.2-35-2.2-1.8-4.3-3.7-6.5-5.5-2.1-1.9-4.2-3.9-6.3-5.8-1-1-2.1-2-3.1-3l-3-3.1-3-3.1c-1-1-2-2.1-2.9-3.2-1.9-2.2-3.8-4.3-5.7-6.5-1.9-2.2-3.6-4.5-5.4-6.8-.9-1.1-1.8-2.3-2.7-3.4l-2.5-3.5-2.5-3.5c-.9-1.2-1.7-2.3-2.5-3.6-1.6-2.4-3.2-4.9-4.7-7.3-1.6-2.5-3-5-4.4-7.5-.7-1.3-1.5-2.5-2.2-3.8l-2-3.9-2-3.9-1-2c-.3-.7-.6-1.3-.9-2-1.2-2.7-2.4-5.3-3.6-8-1.2-2.7-2.2-5.4-3.3-8.2-.5-1.4-1.1-2.7-1.6-4.1l-1.4-4.2-1.4-4.2-.7-2.1c-.2-.7-.4-1.4-.6-2.1l-2.4-8.5c-.4-1.4-.7-2.9-1.1-4.3l-1-4.3-1-4.3-.8-4.4-.8-4.4c-.2-1.5-.6-2.9-.7-4.4l-1.1-8.8c0-.7-.2-1.5-.3-2.2l-.2-2.2-.3-4.4-.3-4.4c-.1-1.5-.1-3-.2-4.4l-.2-9,.2-8.7c0-1.5,0-2.9.2-4.4l.3-4.5.4-4.5.2-2.2c0-.7.2-1.5.3-2.2l1.1-8.8c.1-1.5.5-2.9.7-4.4l.8-4.4.8-4.4,1-4.3,1-4.3c.4-1.4.6-2.9,1.1-4.3l2.4-8.5c.2-.7.4-1.4.6-2.1l.7-2.1,1.4-4.2,1.4-4.2c.5-1.4,1.1-2.7,1.6-4.1,1.1-2.7,2.1-5.5,3.3-8.2,1.2-2.7,2.4-5.3,3.6-8,.3-.7.6-1.3.9-2l1-2,2-3.9,2-3.9c.7-1.3,1.5-2.5,2.2-3.8,1.5-2.5,2.9-5.1,4.4-7.5,1.6-2.4,3.2-4.9,4.7-7.3.8-1.2,1.6-2.4,2.5-3.6l2.5-3.5,2.5-3.5c.9-1.1,1.8-2.3,2.7-3.4,1.8-2.2,3.6-4.6,5.4-6.8,1.9-2.2,3.8-4.3,5.7-6.5.9-1.1,1.9-2.1,2.9-3.2l3-3.1,3-3.1c1-1,2.1-2,3.1-3,2.1-1.9,4.1-4,6.3-5.9,2.2-1.9,4.3-3.7,6.5-5.6,17.6-14.4,36.9-26.3,57.2-35.1l3.8-1.7,3.9-1.5c2.6-1,5.1-2,7.7-2.9,5.2-1.7,10.3-3.5,15.6-4.9,10.4-3,21-5,31.4-6.6,5.3-.6,10.5-1.4,15.7-1.6,2.6-.2,5.2-.4,7.8-.5,2.6,0,5.2,0,7.8-.1,1.3,0,2.5,0,3.9,0,1.3,0,2.5,0,3.8.1,2.5,0,5.1.2,7.6.2,2.5.2,5.1.4,7.6.6,2.5.2,5.1.4,7.6.8,2.5.3,5,.7,7.5,1l1.9.2,1.8.3c1.2.2,2.5.5,3.7.7,2.4.5,4.9.9,7.3,1.4,2.4.6,4.8,1.1,7.2,1.7,1.2.3,2.4.6,3.6.9,1.2.3,2.3.7,3.5,1,2.3.7,4.6,1.4,7,2,2.3.7,4.5,1.6,6.8,2.3,2.2.8,4.5,1.5,6.7,2.4,17.6,6.8,33.9,15.5,48.3,25.3,1.8,1.2,3.6,2.5,5.3,3.8,1.8,1.3,3.5,2.5,5.2,3.8,1.7,1.3,3.3,2.7,5,4,1.6,1.3,3.3,2.6,4.9,4,6.3,5.5,12.3,11,17.8,16.8,11,11.5,20.4,23.5,28.1,35.4,7.8,11.9,14,23.7,18.8,35,1.3,2.8,2.3,5.6,3.4,8.3,1.1,2.7,2.2,5.4,3,8.1.9,2.7,1.8,5.3,2.6,7.8.7,2.6,1.5,5.1,2.1,7.5,5.4,19.6,7.2,35.7,7.9,46.5,0,1.4.2,2.6.3,3.8,0,1.2,0,2.3.1,3.4,0,2.1,0,3.8.1,5.2,0,2.8,0,4.3,0,4.3h0ZM650.1,413.7s0-1.5-.1-4.3c0-1.4,0-3.1-.1-5.2,0-1,0-2.2-.1-3.4,0-1.2-.2-2.5-.3-3.8-.7-10.8-2.5-26.8-7.9-46.4-.7-2.4-1.4-5-2.2-7.5-.9-2.5-1.7-5.1-2.6-7.8-.8-2.7-1.9-5.3-3-8.1-1.1-2.7-2.1-5.5-3.4-8.3-4.8-11.2-11.1-23-18.9-34.8s-17.1-23.7-28.2-35.1c-11.1-11.4-23.8-22.3-38.3-32-14.5-9.6-30.7-18.1-48.2-24.8-2.2-.9-4.4-1.6-6.7-2.4-2.2-.8-4.5-1.6-6.8-2.2-2.3-.6-4.6-1.3-6.9-2l-3.5-1c-1.2-.3-2.4-.6-3.5-.8-2.4-.5-4.7-1.1-7.1-1.6-2.4-.5-4.8-.9-7.2-1.3-1.2-.2-2.4-.4-3.6-.6l-1.8-.3-1.8-.2c-2.5-.3-4.9-.6-7.4-.9-2.5-.4-5-.5-7.5-.7-2.5-.2-5-.4-7.5-.6-2.5,0-5.1-.1-7.6-.2s-2.5,0-3.8-.1c-1.3,0-2.5,0-3.8,0-2.6,0-5.1.1-7.7.2-2.6.1-5.1.4-7.7.5-5.2.3-10.3,1.1-15.5,1.7-10.3,1.6-20.8,3.6-31,6.7-5.2,1.4-10.2,3.2-15.3,4.9-2.5.9-5,2-7.5,2.9l-3.8,1.5-3.7,1.7c-19.9,8.8-38.9,20.6-56,35-2.1,1.8-4.2,3.7-6.4,5.5-2.1,1.9-4.1,3.9-6.1,5.8-1,1-2.1,1.9-3.1,2.9l-2.9,3.1-2.9,3.1c-1,1-2,2-2.9,3.1-1.9,2.1-3.7,4.3-5.6,6.4-1.8,2.2-3.5,4.4-5.3,6.7-.9,1.1-1.8,2.2-2.6,3.4l-2.5,3.5-2.5,3.5c-.8,1.2-1.7,2.3-2.4,3.5-1.5,2.4-3.1,4.8-4.6,7.2-1.5,2.4-2.9,5-4.3,7.4-.7,1.2-1.4,2.5-2.1,3.7l-2,3.8-2,3.8-1,1.9c-.3.6-.6,1.3-.9,2-1.2,2.6-2.4,5.2-3.6,7.9-1.1,2.6-2.1,5.4-3.2,8-.5,1.3-1.1,2.7-1.6,4l-1.4,4.1-1.4,4.1-.7,2c-.2.7-.4,1.4-.6,2.1l-2.4,8.3c-.4,1.4-.7,2.8-1,4.2l-1,4.2-1,4.2-.8,4.3-.8,4.3c-.2,1.4-.6,2.9-.7,4.3l-1.1,8.6c0,.7-.2,1.4-.3,2.2l-.2,2.2-.3,4.3-.3,4.3c-.1,1.4-.1,2.9-.1,4.4l-.2,8.7.2,8.7c0,1.5,0,2.9.1,4.4l.3,4.3.3,4.3.2,2.2c0,.7.2,1.4.3,2.2l1.1,8.6c.1,1.4.4,2.9.7,4.3l.8,4.3.8,4.3,1,4.2,1,4.2c.3,1.4.6,2.8,1,4.2l2.4,8.3c.2.7.4,1.4.6,2.1l.7,2,1.4,4.1,1.4,4.1c.5,1.4,1.1,2.7,1.6,4,1.1,2.7,2.1,5.4,3.2,8,1.2,2.6,2.4,5.2,3.6,7.9.3.7.6,1.3.9,2l1,1.9,2,3.8,2,3.8c.7,1.3,1.4,2.5,2.1,3.7,1.4,2.5,2.8,5,4.3,7.4,1.5,2.4,3.1,4.8,4.6,7.2.8,1.2,1.6,2.4,2.4,3.5l2.5,3.5,2.5,3.5c.9,1.1,1.8,2.2,2.6,3.4,1.8,2.2,3.5,4.5,5.3,6.7,1.9,2.1,3.7,4.3,5.6,6.4.9,1.1,1.9,2.1,2.9,3.1l2.9,3.1,2.9,3.1c1,1,2,2,3.1,2.9,2.1,1.9,4,3.9,6.1,5.8,2.1,1.8,4.2,3.7,6.3,5.5,17.2,14.4,36.1,26.2,56,35l3.7,1.7,3.8,1.5c2.5,1,5,2,7.5,3,5.1,1.7,10.1,3.6,15.3,4.9,10.2,3.1,20.7,5.1,31,6.7,5.2.6,10.4,1.4,15.5,1.7,2.6.2,5.1.4,7.7.5,2.6,0,5.1.1,7.7.2,1.3,0,2.6,0,3.8,0,1.3,0,2.5,0,3.8,0,2.5,0,5.1-.1,7.6-.2,2.5-.2,5-.4,7.5-.5,2.5-.2,5-.3,7.5-.7,2.5-.3,4.9-.6,7.4-.9l1.8-.2,1.8-.3c1.2-.2,2.4-.4,3.6-.7,2.4-.5,4.8-.8,7.2-1.3,2.4-.5,4.8-1.1,7.1-1.6,1.2-.3,2.4-.5,3.5-.8,1.2-.3,2.3-.7,3.5-1,2.3-.7,4.6-1.3,6.9-2,2.3-.7,4.5-1.5,6.8-2.2,2.2-.8,4.5-1.4,6.7-2.4,17.6-6.7,33.7-15.1,48.2-24.8,14.5-9.7,27.2-20.6,38.3-32,11-11.4,20.4-23.3,28.2-35.1,7.8-11.8,14-23.5,18.9-34.8,1.3-2.8,2.3-5.6,3.4-8.3,1.1-2.7,2.2-5.4,3-8.1.9-2.7,1.8-5.2,2.6-7.8.7-2.6,1.5-5.1,2.2-7.5,5.5-19.6,7.2-35.6,7.9-46.4,0-1.4.2-2.6.3-3.8,0-1.2,0-2.3.1-3.4,0-2.1,0-3.8.1-5.2,0-2.8.1-4.3.1-4.3h0Z"/>
    <path class="st1" d="M415.3,674.3s-1.6,0-4.7-.1c-1.5,0-3.5,0-5.8-.1-1.1,0-2.4,0-3.7-.1-1.3,0-2.7-.2-4.2-.3-12-.8-29.5-2.7-51.1-8.7-2.7-.8-5.5-1.5-8.3-2.4-2.8-.9-5.7-1.9-8.6-2.9-3-.9-5.9-2.1-8.9-3.3-3-1.2-6.1-2.3-9.2-3.8-12.4-5.3-25.4-12.1-38.5-20.7-13.1-8.5-26.2-18.8-38.9-30.9-6.4-6-12.4-12.7-18.5-19.6-1.6-1.7-2.9-3.6-4.4-5.4-1.4-1.8-2.9-3.7-4.4-5.5-1.4-1.9-2.8-3.8-4.2-5.7-1.4-1.9-2.8-3.8-4.2-5.8-10.8-15.9-20.3-33.8-27.8-53.1l-.7-1.8c-.2-.6-.4-1.2-.6-1.8-.4-1.2-.9-2.5-1.3-3.7-.8-2.5-1.8-5-2.6-7.5-.7-2.5-1.5-5.1-2.2-7.6-.4-1.3-.8-2.6-1.1-3.8-.3-1.3-.6-2.6-.9-3.9-.6-2.6-1.2-5.2-1.9-7.9-.3-1.3-.5-2.6-.8-4-.2-1.3-.5-2.7-.8-4s-.5-2.7-.8-4l-.4-2-.3-2c-.4-2.7-.7-5.5-1.1-8.2-.4-2.7-.6-5.5-.8-8.3-.2-2.8-.5-5.6-.7-8.4,0-2.8-.2-5.6-.3-8.4,0-1.4,0-2.8-.1-4.2,0-.1,0-.4,0-.6v-1.6s0-2.1,0-2.1c0-2.8.1-5.6.1-8.5,0-1.4.2-2.9.2-4.3.1-1.4.2-2.9.3-4.3.3-5.8,1.1-11.5,1.8-17.3,1.7-11.5,3.9-23.1,7.2-34.5,1.5-5.8,3.5-11.4,5.4-17.1,1-2.8,2.1-5.6,3.2-8.4l1.6-4.2,1.8-4.1c9.6-22.2,22.6-43.5,38.5-62.7,2-2.4,4.1-4.8,6.1-7.1,2.1-2.4,4.3-4.6,6.4-6.9,1.1-1.1,2.1-2.3,3.2-3.4l3.4-3.3,3.4-3.3c1.1-1.1,2.3-2.2,3.5-3.2,2.4-2.1,4.8-4.2,7.1-6.2,1.2-1.1,2.5-2,3.7-3l3.7-3c1.2-1,2.5-2,3.8-2.9l3.9-2.8,3.9-2.8c1.3-.9,2.6-1.9,3.9-2.7,2.7-1.7,5.4-3.5,8-5.2,1.3-.9,2.8-1.6,4.1-2.5l4.1-2.4c1.4-.8,2.8-1.6,4.2-2.4l4.3-2.2,4.3-2.2,2.1-1.1c.7-.4,1.5-.7,2.2-1,2.9-1.3,5.9-2.7,8.8-4,3-1.3,6-2.4,9-3.6,1.5-.6,3-1.2,4.5-1.8l4.6-1.6,4.6-1.6,2.3-.8c.8-.3,1.5-.4,2.3-.7l9.3-2.7c1.5-.5,3.1-.8,4.7-1.2l4.7-1.1,4.7-1.1,4.8-.9,4.8-.9c1.6-.3,3.2-.6,4.8-.8l9.6-1.2c.8-.1,1.6-.2,2.4-.3l2.4-.2,4.9-.4,4.9-.4c1.6-.1,3.2-.1,4.9-.2l9.8-.2,9.6.3c1.6,0,3.2,0,4.8.2l4.9.4,4.9.4,2.4.2c.8,0,1.6.2,2.4.3l9.6,1.2c1.6.2,3.2.5,4.8.8l4.8.9,4.8.9,4.7,1.1,4.7,1.1c1.6.4,3.2.7,4.7,1.2l9.3,2.7c.8.2,1.6.4,2.3.7l2.3.8,4.6,1.6,4.6,1.6c1.5.6,3,1.2,4.5,1.8,3,1.2,6,2.3,9,3.6l8.8,4c.7.3,1.5.6,2.2,1l2.1,1.1,4.3,2.2,4.3,2.2c1.4.8,2.8,1.6,4.2,2.4l4.2,2.4c1.4.8,2.8,1.6,4.1,2.5,2.7,1.7,5.4,3.5,8,5.2,1.4.8,2.7,1.8,3.9,2.7l3.9,2.8,3.9,2.8c1.3,1,2.5,2,3.8,2.9l3.7,3c1.2,1,2.5,1.9,3.7,3,2.4,2.1,4.8,4.2,7.2,6.2,1.2,1,2.3,2.1,3.5,3.2l3.4,3.3,3.4,3.3c1.1,1.1,2.2,2.3,3.2,3.4,2.1,2.3,4.4,4.5,6.4,6.9,2,2.4,4.1,4.8,6.1,7.1,15.9,19.3,28.9,40.5,38.5,62.7l1.8,4.1,1.6,4.2c1.1,2.8,2.2,5.6,3.2,8.4,1.8,5.7,3.9,11.3,5.4,17.1,3.3,11.4,5.5,23,7.2,34.5.7,5.8,1.5,11.5,1.8,17.3.2,2.9.5,5.7.5,8.6,0,2.9,0,5.7.2,8.5,0,1.4,0,2.8,0,4.3,0,1.4,0,2.8-.1,4.2,0,2.8-.2,5.6-.3,8.4-.2,2.8-.5,5.6-.7,8.4-.2,2.8-.4,5.6-.8,8.3-.4,2.7-.7,5.5-1.1,8.2l-.3,2-.4,2c-.2,1.4-.5,2.7-.8,4s-.5,2.7-.8,4c-.3,1.3-.5,2.7-.8,4-.6,2.6-1.2,5.3-1.9,7.9-.3,1.3-.6,2.6-1,3.9-.4,1.3-.8,2.6-1.1,3.8-.8,2.6-1.5,5.1-2.2,7.6-.8,2.5-1.7,5-2.5,7.5-.4,1.2-.9,2.5-1.3,3.7-.2.6-.4,1.2-.7,1.8l-.7,1.8c-7.5,19.4-17,37.2-27.8,53.1-1.3,2-2.8,3.9-4.2,5.8-1.4,1.9-2.8,3.9-4.2,5.7-1.5,1.8-2.9,3.7-4.4,5.5-1.5,1.8-2.8,3.7-4.4,5.4-6,7-12.1,13.6-18.5,19.6-12.6,12.2-25.8,22.4-38.9,30.9-13.1,8.5-26,15.3-38.4,20.7-3,1.5-6.2,2.6-9.2,3.8-3,1.2-5.9,2.4-8.9,3.3-2.9,1-5.8,2-8.6,2.9-2.8.8-5.6,1.6-8.3,2.4-21.6,6-39.2,7.9-51.1,8.7-1.5.1-2.9.2-4.2.3-1.3.1-2.5,0-3.7.1-2.3,0-4.2,0-5.8.1-3.1,0-4.7.1-4.7.1h0ZM415.3,673.8s1.6,0,4.7-.1c1.5,0,3.5,0,5.8-.2,1.1,0,2.4,0,3.7-.1,1.3,0,2.7-.2,4.2-.3,11.9-.8,29.5-2.7,51-8.7,2.7-.8,5.4-1.6,8.3-2.4,2.8-.9,5.6-1.9,8.6-2.9,2.9-.9,5.9-2.1,8.9-3.3,3-1.2,6.1-2.3,9.1-3.8,12.4-5.3,25.2-12.2,38.2-20.8,13-8.5,26.1-18.8,38.6-31,12.5-12.2,24.5-26.2,35.1-42.1,10.6-15.9,19.9-33.7,27.2-53l.7-1.8c.2-.6.4-1.2.6-1.8.4-1.2.8-2.5,1.2-3.7.8-2.5,1.7-4.9,2.5-7.4.7-2.5,1.4-5.1,2.2-7.6.4-1.3.7-2.5,1.1-3.8.3-1.3.6-2.6.9-3.9.6-2.6,1.2-5.2,1.8-7.8.3-1.3.5-2.6.8-4,.2-1.3.5-2.6.7-4,.2-1.3.5-2.7.7-4l.4-2,.3-2c.3-2.7.7-5.4,1-8.1.4-2.7.5-5.5.8-8.2.2-2.8.4-5.5.6-8.3,0-2.8.1-5.6.2-8.4,0-1.4,0-2.8.1-4.2,0-1.4,0-2.8,0-4.2,0-2.8-.1-5.6-.2-8.5-.1-2.8-.4-5.6-.6-8.5-.3-5.7-1.2-11.4-1.9-17.1-1.8-11.4-4-22.8-7.4-34.1-1.5-5.7-3.6-11.2-5.4-16.9-1-2.8-2.2-5.5-3.2-8.3l-1.6-4.2-1.8-4.1c-9.7-21.9-22.7-42.7-38.5-61.6-2-2.3-4-4.6-6.1-7-2-2.3-4.2-4.5-6.4-6.8-1.1-1.1-2.1-2.2-3.2-3.4l-3.4-3.2-3.4-3.2c-1.1-1.1-2.2-2.2-3.4-3.1-2.3-2-4.7-4.1-7.1-6.1-1.2-1.1-2.4-2-3.6-2.9l-3.7-2.9c-1.2-1-2.5-1.9-3.7-2.9l-3.8-2.7-3.8-2.7c-1.3-.9-2.5-1.8-3.9-2.6-2.6-1.7-5.3-3.4-7.9-5.1-1.3-.9-2.7-1.6-4.1-2.4l-4.1-2.4c-1.4-.8-2.7-1.6-4.1-2.3l-4.2-2.2-4.2-2.2-2.1-1.1c-.7-.4-1.4-.7-2.2-1-2.9-1.3-5.8-2.6-8.7-3.9-2.9-1.3-5.9-2.4-8.8-3.5-1.5-.6-2.9-1.2-4.4-1.7l-4.5-1.5-4.5-1.5-2.3-.8c-.8-.2-1.5-.4-2.3-.7l-9.2-2.6c-1.5-.5-3.1-.8-4.6-1.1l-4.6-1.1-4.6-1.1-4.7-.8-4.7-.8c-1.6-.3-3.1-.6-4.7-.8l-9.5-1.2c-.8,0-1.6-.2-2.4-.3l-2.4-.2-4.8-.4-4.8-.4c-1.6-.1-3.2-.1-4.8-.2l-9.6-.2-9.5.2c-1.6,0-3.2,0-4.8.2l-4.8.4-4.8.4-2.4.2c-.8,0-1.6.2-2.4.3l-9.5,1.2c-1.6.2-3.1.5-4.7.8l-4.7.8-4.7.8-4.6,1.1-4.6,1.1c-1.5.4-3.1.7-4.6,1.1l-9.2,2.6c-.8.2-1.5.4-2.3.7l-2.3.8-4.5,1.5-4.5,1.5c-1.5.5-3,1.1-4.4,1.7-2.9,1.2-5.9,2.3-8.8,3.5-2.9,1.3-5.8,2.6-8.6,3.9-.7.3-1.5.6-2.1,1l-2.1,1.1-4.2,2.2-4.2,2.2c-1.4.8-2.7,1.6-4.1,2.3l-4.1,2.4c-1.4.8-2.8,1.5-4.1,2.4-2.6,1.7-5.3,3.4-7.9,5.1-1.3.8-2.6,1.7-3.9,2.6l-3.8,2.7-3.8,2.7c-1.2.9-2.5,1.9-3.7,2.9l-3.7,2.9c-1.2,1-2.5,1.9-3.6,2.9-2.4,2-4.7,4.1-7.1,6.1-1.2,1-2.3,2.1-3.4,3.1l-3.4,3.2-3.4,3.2c-1.1,1.1-2.1,2.2-3.2,3.4-2.1,2.3-4.3,4.4-6.4,6.8-2,2.3-4,4.7-6.1,7-15.8,18.9-28.8,39.7-38.5,61.6l-1.9,4.1-1.6,4.2c-1.1,2.8-2.2,5.5-3.2,8.3-1.9,5.6-3.9,11.2-5.4,16.9-3.4,11.3-5.6,22.7-7.4,34.1-.7,5.7-1.6,11.4-1.9,17.1-.2,2.8-.5,5.7-.6,8.5,0,2.8-.1,5.7-.2,8.5,0,1.4,0,2.8,0,4.2,0,1.4,0,2.8.1,4.2,0,2.8.1,5.6.2,8.4.2,2.8.4,5.5.6,8.3.2,2.8.4,5.5.8,8.2.4,2.7.7,5.4,1,8.1l.3,2,.4,2c.2,1.3.5,2.7.7,4,.2,1.3.5,2.7.7,4,.2,1.3.4,2.7.8,4,.6,2.6,1.2,5.2,1.8,7.8.3,1.3.6,2.6.9,3.9.4,1.3.7,2.5,1.1,3.8.7,2.5,1.4,5.1,2.2,7.6.8,2.5,1.7,5,2.5,7.4.4,1.2.8,2.5,1.2,3.7.2.6.4,1.2.6,1.8l.7,1.8c7.3,19.3,16.6,37.1,27.2,53,10.6,15.9,22.6,29.9,35.1,42.1,12.5,12.2,25.6,22.4,38.6,31,13,8.5,25.9,15.4,38.2,20.8,3,1.5,6.1,2.6,9.1,3.8,3,1.2,5.9,2.4,8.9,3.3,2.9,1,5.8,2,8.6,2.9,2.8.8,5.6,1.6,8.3,2.4,21.5,6,39.1,8,51,8.7,1.5.1,2.9.2,4.2.3,1.3.1,2.5,0,3.7.1,2.3,0,4.2.1,5.8.2,3.1,0,4.7.1,4.7.1h0Z"/>
  </g>
  <polygon class="st0" points="415.3 79.9 448.6 362.4 415.3 413.7 415.3 79.9"/>
  <path class="st1" d="M414.9,415.3V79.9h.9c0,0,33.2,282.6,33.2,282.6h0c0,.1-34.1,52.8-34.1,52.8h0ZM415.8,87.8v324.4l32.3-49.9s-32.3-274.5-32.3-274.5Z"/>
  <polygon class="st1" points="415.3 79.9 382.1 362.4 415.3 413.7 415.3 79.9"/>
  <polygon class="st1" points="415.3 79.9 382.1 362.4 415.3 413.7 415.3 79.9"/>
  <path class="st1" d="M415.8,415.3l-34.2-52.8,33.2-282.6h.9v335.5h0ZM382.6,362.2l32.3,49.9V87.8l-32.3,274.5h0Z"/>
  <polygon class="st0" points="81.5 413.7 363.9 447 415.3 413.7 81.5 413.7"/>
  <path class="st1" d="M364,447.4h-.2s-282.5-33.2-282.5-33.2v-.9h335.5l-52.8,34.2h0ZM89.4,414.2l274.5,32.3,49.9-32.3H89.4Z"/>
  <polygon class="st1" points="81.5 413.7 363.9 380.5 415.3 413.7 81.5 413.7"/>
  <polygon class="st1" points="81.5 413.7 363.9 380.5 415.3 413.7 81.5 413.7"/>
  <path class="st1" d="M416.9,414.2H81.5v-.9c0,0,282.6-33.2,282.6-33.2h.1c0,0,52.7,34.2,52.7,34.2h0ZM89.4,413.3h324.4l-49.9-32.3-274.5,32.3h0Z"/>
  <polygon class="st0" points="415.3 747.6 382.1 465.1 415.3 413.7 415.3 747.6"/>
  <path class="st1" d="M414.9,747.6l-33.2-282.6h0c0-.1,34.1-52.8,34.1-52.8v335.4h-.9s0,0,0,0ZM382.6,465.2l32.3,274.5v-324.4l-32.3,49.9Z"/>
  <polygon class="st1" points="415.3 747.6 448.6 465.1 415.3 413.7 415.3 747.6"/>
  <polygon class="st1" points="415.3 747.6 448.6 465.1 415.3 413.7 415.3 747.6"/>
  <path class="st1" d="M415.8,747.6h-.9v-335.5l34.2,52.8v.2s-33.2,282.5-33.2,282.5h0ZM415.8,415.3v324.4l32.3-274.5-32.3-49.9h0Z"/>
  <polygon class="st0" points="749.2 413.7 466.7 380.5 415.3 413.7 749.2 413.7"/>
  <path class="st1" d="M749.2,414.2h-335.4l52.8-34.2,282.6,33.2v.9s0,0,0,0ZM416.9,413.3h324.4l-274.5-32.3-49.9,32.3h0Z"/>
  <polygon class="st1" points="749.2 413.7 466.7 447 415.3 413.7 749.2 413.7"/>
  <polygon class="st1" points="749.2 413.7 466.7 447 415.3 413.7 749.2 413.7"/>
  <path class="st1" d="M466.6,447.4h-.1c0,0-52.7-34.2-52.7-34.2h335.4v.9s-282.6,33.2-282.6,33.2h0ZM416.9,414.2l49.9,32.3,274.5-32.3h-324.4Z"/>
  <polygon class="st1" points="293.5 294 382.1 362.4 415.3 413.7 293.5 294"/>
  <polygon class="st1" points="293.5 294 382.1 362.4 415.3 413.7 293.5 294"/>
  <path class="st1" d="M418,417l-124.8-122.6.6-.7,88.7,68.4h0c0,0,35.5,55,35.5,55h0ZM299.3,299.1l113.4,111.4-30.9-47.8-82.5-63.6Z"/>
  <polygon class="st0" points="293.5 294 363.9 380.5 415.3 413.7 293.5 294"/>
  <path class="st1" d="M418.9,416.6l-55.3-35.8-70.5-86.5.7-.6,125.1,122.9h0ZM364.3,380.2l47.5,30.7-112.6-110.7,65.1,79.9Z"/>
  <polygon class="st1" points="293.5 533.4 382.1 465.1 415.3 413.7 293.5 533.4"/>
  <polygon class="st1" points="293.5 533.4 382.1 465.1 415.3 413.7 293.5 533.4"/>
  <path class="st1" d="M293.8,533.8l-.6-.7,124.8-122.6-35.6,55-88.6,68.3h0ZM412.7,417l-113.4,111.4,82.5-63.6,30.9-47.8Z"/>
  <polygon class="st0" points="293.5 533.4 363.9 447 415.3 413.7 293.5 533.4"/>
  <path class="st1" d="M293.8,533.8l-.7-.6,70.5-86.5,55.3-35.7-125.1,122.9h0ZM364.3,447.3l-65.1,79.9,112.6-110.7-47.5,30.7h0Z"/>
  <polygon class="st1" points="535 291.9 466.7 380.5 415.3 413.7 535 291.9"/>
  <polygon class="st1" points="535 291.9 466.7 380.5 415.3 413.7 535 291.9"/>
  <path class="st1" d="M412.1,416.4l122.6-124.8.7.6-68.4,88.7h0s-54.9,35.5-54.9,35.5h0ZM530,297.7l-111.4,113.4,47.8-30.9,63.6-82.5h0Z"/>
  <polygon class="st0" points="535 291.9 448.6 362.4 415.3 413.7 535 291.9"/>
  <path class="st1" d="M412.5,417.3l35.8-55.3,86.5-70.5.6.7-122.9,125.1h0ZM448.9,362.7l-30.7,47.5,110.7-112.6-79.9,65.1h0Z"/>
  <polygon class="st1" points="535 535.6 466.7 447 415.3 413.7 535 535.6"/>
  <polygon class="st1" points="535 535.6 466.7 447 415.3 413.7 535 535.6"/>
  <path class="st1" d="M534.7,535.9l-122.6-124.8,55,35.6,68.3,88.6-.7.6h0ZM418.6,416.4l111.4,113.4-63.6-82.5-47.8-30.9h0Z"/>
  <polygon class="st0" points="535 535.6 448.6 465.1 415.3 413.7 535 535.6"/>
  <path class="st1" d="M534.7,535.9l-86.5-70.5-35.7-55.3,122.9,125.1-.6.7ZM448.9,464.8l79.9,65.1-110.7-112.6,30.7,47.5h0Z"/>
  <g>
    <g>
      <g>
        <path class="st1" d="M140.3,190l10.2,14.6c-2.5-8-3.8-13.7-4-17-.1-3.3.5-5.9,2-7.7.8-1,1.8-1.5,2.9-1.6s2.2.3,3.3,1.1c1.2,1,2.5,2.5,4,4.6l9.4,13.5c1.1,1.6,1.8,2.5,2.1,2.7.3.2.5.3.9.3.3,0,.5-.1.7-.3.2-.2.3-.6.3-1.1,0-1.7-.3-3.8-1-6.4l1.3-.5c1.1,3.9,1.6,7.1,1.4,9.6-.2,1.7-.6,3.1-1.3,3.9-.6.7-1.3,1.1-2,1.2-.8,0-1.5-.2-2.3-.8-.9-.8-2.3-2.4-4-4.9l-9-12.9c-1.1-1.6-2.1-2.7-2.9-3.4-.4-.3-.8-.4-1.3-.4s-.8.3-1.1.6c-.4.5-.7,1.4-.9,2.5-.3,2.1,0,4.8.7,8,.8,3.2,2,6.9,3.7,11.2.9,2.3,2.1,4.5,3.6,6.7l3.6,5.3-3.5,4.4-14-20.1c-1.7-2.4-2.8-3.8-3.2-4.1-.4-.4-1-.5-1.6-.4-.6,0-1.1.4-1.5.9-.2.2-.5.7-.9,1.3l-.8,1.2-1.2-.7,6.4-11.6h0Z"/>
        <path class="st1" d="M157,224.3l-14.4-20.7c-2.2-3.1-2.9-3.8-3.1-4-.3-.3-.7-.4-1.1-.3-.5,0-.9.3-1.2.7-.2.2-.4.6-.8,1.3l-1,1.7-2.1-1.2,7-12.8,8.7,12.5c-1.9-6.3-2.9-11-3-13.9-.2-3.4.5-6.2,2.1-8,.9-1.1,2-1.7,3.3-1.8,1.3-.1,2.5.3,3.6,1.2,1.2,1,2.6,2.6,4.1,4.7l9.4,13.5c1.4,2,1.9,2.5,2,2.6.2.1.3.2.5.2s.3,0,.3,0c0,0,.2-.3.2-.8,0-1.6-.3-3.7-1-6.2v-.5c-.1,0,2.1-.8,2.1-.8l.2.6c1.1,3.9,1.6,7.2,1.4,9.8-.2,1.8-.7,3.3-1.4,4.2-.7.8-1.5,1.3-2.4,1.4s-1.8-.2-2.6-.9c-1-.8-2.3-2.4-4.1-5l-9-12.9c-1.1-1.5-2-2.6-2.8-3.3-.3-.2-.5-.3-.8-.3-.3,0-.5.2-.8.4-.4.5-.6,1.2-.8,2.3-.3,2,0,4.7.7,7.8.7,3.1,2,6.9,3.7,11.1.9,2.2,2.1,4.4,3.5,6.6l3.9,5.7-4.2,5.3h0ZM138.6,198.2c.6,0,1.1.2,1.6.5.3.2,1,1,3.3,4.2l13.6,19.5,2.8-3.5-3.4-5c-1.5-2.2-2.7-4.5-3.6-6.8-1.7-4.3-3-8-3.7-11.2-.8-3.2-1-6-.7-8.2.2-1.3.5-2.2,1-2.8.4-.5.9-.7,1.5-.8.6,0,1.2,0,1.7.5.9.7,1.9,1.8,3,3.5l9,12.9c1.7,2.4,3,4,3.9,4.8.6.5,1.2.7,1.9.7s1.2-.4,1.7-1c.7-.8,1.1-2,1.2-3.7.2-2.3-.2-5.3-1.2-8.9h-.3c.6,2.5.9,4.5.9,6.2,0,.7-.2,1.1-.4,1.5-.2.3-.6.5-1.1.5h0c-.5,0-.9-.1-1.2-.4-.2-.2-.7-.7-2.2-2.8l-9.4-13.5c-1.4-2.1-2.8-3.6-3.9-4.5-.9-.7-1.9-1.1-2.9-1-1,0-1.8.5-2.5,1.4-1.4,1.7-2,4.1-1.8,7.3.1,3.3,1.5,8.9,3.9,16.9l-1,.5-9.7-13.9-5.7,10.3.3.2.5-.8c.4-.7.7-1.1.9-1.4.5-.6,1.1-.9,1.8-1.1.2,0,.3,0,.4,0h0Z"/>
      </g>
      <g>
        <path class="st1" d="M174,148.3l23.5,15.7c-1.2-6.6-2.8-12.3-4.6-17.1-1.1-2.8-2.1-4.6-3-5.4-.4-.4-.9-.6-1.4-.6-.2,0-.7,0-1.5.3s-1.4.4-2,.3c-.5,0-1-.3-1.4-.6-.6-.5-.9-1.1-1-1.9,0-.8.2-1.5.8-2.2.6-.8,1.5-1.2,2.5-1.3s2.1.3,3.1,1.1c1,.8,1.8,1.7,2.5,2.7,1.2,1.9,2.4,4.8,3.7,8.6,1.5,4.6,2.7,9.2,3.7,13.5s1.5,7.5,1.8,9.5l-.9,1.1-21.7-14.4,10.4,28.4-1,1.3c-8.4-6.5-15.3-11.4-20.7-14.6-2.2-1.3-3.9-1.9-5.1-1.7-.8.1-1.6.7-2.4,1.7-.5.6-1,1.3-1.6,2.3l-1.1-.9,4.8-9.9c4.2,1.4,9.8,4.7,16.8,9.8,2.7,2,4.3,3.1,5,3.6l-10.1-28,.9-1.1h0Z"/>
        <path class="st1" d="M187.5,187.9l-.4-.3c-8.3-6.5-15.3-11.4-20.6-14.6-2.1-1.3-3.7-1.8-4.8-1.7-.7.1-1.4.6-2.1,1.5-.4.5-1,1.3-1.6,2.2l-.3.5-1.8-1.5,5.2-10.8.5.2c4.2,1.5,9.9,4.8,16.9,9.9,1.6,1.1,2.8,2,3.7,2.7l-9.6-26.7,1.4-1.7,22.8,15.2c-1.2-6-2.6-11.3-4.3-15.8-1.3-3.4-2.3-4.7-2.8-5.1-.4-.3-.7-.5-1.1-.5-.2,0-.5,0-1.2.3-.8.3-1.6.4-2.2.3-.6,0-1.2-.3-1.7-.7-.7-.6-1.1-1.4-1.2-2.3,0-.9.2-1.8.9-2.6.7-.9,1.7-1.4,2.9-1.5,1.2,0,2.3.3,3.4,1.2,1,.8,1.9,1.8,2.6,2.8,1.2,2,2.5,4.9,3.8,8.7,1.5,4.6,2.7,9.2,3.7,13.6.9,4.4,1.5,7.6,1.8,9.5v.2s-1.3,1.6-1.3,1.6l-20.7-13.8,10,27.1-1.6,1.9h0ZM162.1,170.2c1.3,0,2.9.6,5,1.8,5.3,3.1,12.1,7.9,20.3,14.3l.5-.6-10.9-29.6,22.7,15.1.4-.5c-.2-1.9-.8-5-1.7-9.2-.9-4.3-2.2-8.9-3.7-13.5-1.3-3.7-2.5-6.6-3.6-8.5-.6-.9-1.4-1.8-2.4-2.6-.9-.7-1.8-1-2.7-1-.9,0-1.6.4-2.2,1.1-.5.6-.7,1.2-.6,1.9,0,.6.3,1.1.8,1.5.3.3.7.4,1.2.5.5,0,1,0,1.7-.3.9-.3,1.4-.4,1.8-.3.5,0,1.1.3,1.6.7,1,.8,2,2.6,3.2,5.6,1.8,4.8,3.4,10.6,4.6,17.2l.2,1.3-24.1-16.1-.4.5,10.5,29.2-1.3-.9c-.7-.5-2.4-1.6-5.1-3.6-6.7-4.8-12.1-8.1-16.2-9.6l-4.4,9.1.3.2c.5-.7.9-1.3,1.3-1.8.9-1.1,1.8-1.7,2.8-1.9.2,0,.3,0,.5,0h0Z"/>
      </g>
    </g>
    <g>
      <g>
        <path class="st1" d="M654.2,157.1l-15.5,8.7c8.2-1.7,14-2.5,17.3-2.4,3.3.2,5.8,1.1,7.5,2.7.9.9,1.3,1.9,1.3,3,0,1.2-.5,2.2-1.4,3.1-1.1,1.1-2.7,2.3-5,3.6l-14.3,8.1c-1.7.9-2.6,1.6-2.9,1.8-.2.2-.4.5-.4.8,0,.3,0,.5.2.7.2.2.6.3,1.1.4,1.7.2,3.9,0,6.5-.4l.4,1.3c-4,.7-7.2.9-9.7.5-1.7-.3-3-.9-3.8-1.7-.7-.7-1-1.4-1-2.1s.3-1.5,1-2.2c.8-.9,2.6-2.1,5.2-3.6l13.7-7.7c1.7-1,2.9-1.8,3.6-2.6.4-.4.5-.8.5-1.2,0-.4-.2-.8-.5-1.2-.5-.5-1.3-.9-2.4-1.1-2.1-.5-4.8-.5-8,0-3.2.5-7.1,1.3-11.5,2.6-2.3.7-4.7,1.7-7,3l-5.7,3.1-4-3.9,21.3-12c2.5-1.5,4-2.4,4.4-2.8.4-.4.6-.9.5-1.5,0-.6-.3-1.1-.7-1.6s-.6-.5-1.3-1l-1.2-.9.8-1.1,10.9,7.4h0Z"/>
        <path class="st1" d="M642.3,189.9c-1.1,0-2.2,0-3.1-.2-1.8-.4-3.2-1-4.1-1.8-.8-.8-1.2-1.6-1.2-2.5,0-.9.4-1.8,1.1-2.5.9-.9,2.6-2.1,5.4-3.6l13.7-7.7c1.6-.9,2.8-1.8,3.5-2.5.2-.2.4-.5.3-.8,0-.3-.1-.6-.4-.8-.4-.4-1.1-.7-2.2-1-2-.5-4.6-.5-7.8,0-3.2.5-7,1.3-11.4,2.6-2.3.7-4.6,1.7-6.9,2.9l-6,3.3-4.8-4.7,21.9-12.4c3.3-1.9,4.1-2.5,4.3-2.7.3-.3.4-.7.4-1.1,0-.5-.2-.9-.5-1.2-.2-.2-.6-.5-1.2-.9l-1.6-1.2,1.4-2,12.1,8.2-13.3,7.5c6.5-1.3,11.2-1.8,14.1-1.7,3.4.2,6.1,1.1,7.8,2.8,1,1,1.5,2.1,1.5,3.4,0,1.3-.5,2.5-1.5,3.5-1.1,1.1-2.8,2.3-5.1,3.6l-14.3,8.1c-2.2,1.2-2.7,1.6-2.8,1.8-.2.2-.2.3-.2.5,0,.2,0,.2,0,.3,0,0,.2.2.8.3,1.5.2,3.8,0,6.3-.4h.5c0,0,.6,2.3.6,2.3h-.6c-2.6.6-4.8.8-6.8.8h0ZM651.9,164.9c1.4,0,2.7.1,3.8.4,1.2.3,2.1.7,2.7,1.3.4.4.7.9.7,1.5s-.2,1.1-.6,1.6c-.8.8-2,1.7-3.7,2.7l-13.7,7.7c-2.6,1.5-4.3,2.6-5.1,3.5-.5.6-.8,1.2-.8,1.8,0,.6.3,1.2.8,1.8.7.7,1.9,1.3,3.5,1.6,2.3.4,5.3.3,8.9-.4v-.3c-2.5.4-4.6.5-6.2.3-.7-.1-1.1-.3-1.4-.6-.3-.3-.4-.6-.4-1.1,0-.4.2-.8.5-1.2.2-.2.7-.6,3-1.9l14.3-8.1c2.2-1.3,3.8-2.4,4.8-3.5.8-.8,1.2-1.7,1.2-2.8,0-1-.4-1.9-1.2-2.7-1.5-1.5-3.9-2.3-7.1-2.5-3.3-.2-9,.6-17.2,2.4l-.4-1,14.7-8.3-9.8-6.6-.2.3.7.6c.6.4,1.1.8,1.3,1,.5.5.8,1.2.9,1.9,0,.8-.2,1.4-.7,1.9-.3.3-1.1.9-4.5,2.9l-20.7,11.7,3.2,3.2,5.3-2.9c2.3-1.3,4.7-2.3,7.1-3,4.4-1.3,8.3-2.2,11.5-2.7,1.6-.2,3.1-.3,4.4-.3h0Z"/>
      </g>
      <g>
        <path class="st1" d="M662.2,192.6c-1,.8-1.8,1.5-2.3,2-1.6,1.6-2.3,3.5-2.3,5.7s.9,4.1,2.5,5.7c1.3,1.3,2.8,2.2,4.5,2.8,1.7.6,4.6,1.2,8.7,1.7l-.2,1.3c-8.3,0-14.4-1.8-18.3-5.5-2.6-2.5-3.8-5.3-3.5-8.2.3-2.9,1.4-5.4,3.3-7.4,2.6-2.7,6.1-4.6,10.5-5.8,4.4-1.2,8.5-1.3,12.5-.5,4,.9,7.3,2.6,10,5.2,1.9,1.8,2.9,3.6,3.1,5.3s-.3,3-1.3,4.1c-1.4,1.5-3.4,2.3-5.9,2.5-3.3.3-7-.5-11.1-2.4-2.7-1.2-6.1-3.4-10.2-6.5h0ZM663.7,191.5c2.9,2.3,5.6,3.9,8,4.7,3.2,1.2,5.9,1.6,8.4,1.3,2.4-.3,4.3-1.1,5.5-2.3.7-.7,1.1-1.6,1-2.5,0-.9-.5-1.8-1.3-2.7-1.8-1.8-4.7-2.7-8.6-2.8-3.9,0-8.2,1.3-12.9,4.2h0Z"/>
        <path class="st1" d="M672.7,212.4c-8.3,0-14.4-1.9-18.3-5.7-2.7-2.6-3.9-5.5-3.6-8.6.3-3,1.5-5.6,3.5-7.7,2.7-2.7,6.3-4.7,10.7-5.9,4.4-1.2,8.7-1.4,12.8-.5,4.1.9,7.5,2.7,10.2,5.3,2,1.9,3,3.8,3.2,5.6.2,1.8-.3,3.3-1.4,4.5-1.5,1.6-3.6,2.5-6.3,2.7-3.4.3-7.2-.6-11.3-2.4-2.7-1.2-6-3.3-9.9-6.3-.8.7-1.4,1.2-1.9,1.7-1.5,1.5-2.2,3.3-2.1,5.3,0,2.1.8,3.8,2.3,5.3,1.2,1.2,2.7,2.1,4.3,2.7,1.7.6,4.6,1.2,8.6,1.6h.5c0,0-.3,2.4-.3,2.4h-.8,0ZM672.5,184.5c-2.3,0-4.8.3-7.3,1-4.3,1.2-7.7,3-10.2,5.6-1.8,1.9-2.9,4.3-3.2,7-.3,2.7.9,5.4,3.3,7.8,3.6,3.6,9.5,5.4,17.4,5.4v-.3c-3.8-.5-6.6-1-8.2-1.6-1.8-.7-3.4-1.6-4.7-2.9-1.7-1.7-2.6-3.7-2.6-6.1s.8-4.4,2.5-6.1c.6-.6,1.4-1.3,2.4-2.1l.3-.3.3.3c4,3.1,7.4,5.3,10,6.5,4,1.8,7.6,2.6,10.8,2.4,2.3-.2,4.2-1,5.6-2.4.9-.9,1.3-2.1,1.1-3.6-.1-1.5-1.1-3.2-2.9-4.9-2.6-2.5-5.8-4.2-9.7-5-1.6-.4-3.3-.5-5-.5h0ZM678.6,198.1h0c-2.1,0-4.5-.5-7.1-1.4-2.4-.9-5.2-2.5-8.1-4.8l-.6-.5.7-.4c4.6-2.8,9-4.3,12.9-4.3h.3c4.1,0,7.1,1.1,9,2.9,1,.9,1.5,2,1.5,3,0,1.1-.4,2.1-1.2,2.9-1.3,1.3-3.2,2.2-5.8,2.5-.5,0-1,0-1.6,0ZM664.7,191.5c2.6,2,5.1,3.4,7.2,4.2,2.4.9,4.7,1.4,6.7,1.4h0c.5,0,1,0,1.4,0,2.3-.3,4-1,5.2-2.1.6-.6.9-1.3.9-2.1,0-.8-.4-1.5-1.2-2.3-1.7-1.7-4.5-2.5-8.3-2.6h-.2c-3.6,0-7.5,1.2-11.7,3.7h0Z"/>
      </g>
    </g>
    <g>
      <g>
        <path class="st1" d="M176.1,671l10-6.1.9,1c-2.4,2.4-3.7,4.5-3.9,6.5-.2,2,.3,3.7,1.6,5.1,1,1.1,2.2,1.7,3.4,1.8,1.2.1,2.3-.2,3.2-1.1.6-.5,1.1-1.2,1.4-2s.5-2.1.7-3.9c.4-4.8,1-8.1,1.7-10s1.6-3.4,2.8-4.5c1.9-1.8,4.3-2.5,7.3-2.3,2.9.2,5.5,1.6,7.7,4,1.2,1.3,2.3,3.1,3.3,5.4.3.8.6,1.4.9,1.7.8.8,1.8,1.1,3,.7l.9,1-10.5,6.5-.9-1c2.7-2.7,4.2-5.1,4.4-7.2s-.6-4.1-2.2-5.9c-1.3-1.4-2.7-2.1-4.2-2.3-1.5-.1-2.9.4-4,1.4-.7.7-1.3,1.4-1.6,2.3-.6,1.5-1.1,4-1.6,7.5s-.9,5.8-1.5,7.2c-.5,1.4-1.3,2.5-2.3,3.4-1.8,1.6-3.9,2.4-6.3,2.2-2.4-.2-4.6-1.3-6.4-3.3-.5-.6-1-1.2-1.3-1.7-.2-.3-.5-1.1-1-2.4-.5-1.3-.9-2.1-1.2-2.4-.7-.8-1.8-1-3.1-.8l-.9-1h0Z"/>
        <path class="st1" d="M190.9,683.2c-.2,0-.5,0-.7,0-2.6-.2-4.8-1.4-6.8-3.5-.6-.6-1-1.2-1.4-1.8-.2-.4-.5-1.2-1.1-2.5-.6-1.6-1-2.1-1.1-2.2-.6-.6-1.5-.8-2.6-.6h-.3s-1.6-1.7-1.6-1.7l11-6.7,1.6,1.7-.4.4c-2.3,2.3-3.6,4.3-3.8,6.2-.2,1.8.3,3.4,1.5,4.7.9,1,1.9,1.6,3,1.7,1.1,0,2-.2,2.8-.9.5-.5.9-1.1,1.2-1.8.3-.7.5-2,.7-3.7.5-4.9,1-8.2,1.7-10.2.7-2,1.7-3.6,2.9-4.7,2-1.9,4.6-2.7,7.7-2.4,3.1.2,5.8,1.6,8.1,4.2,1.3,1.4,2.4,3.2,3.4,5.6.3.7.6,1.3.9,1.6.6.7,1.4.9,2.5.6h.3c0,0,1.6,1.6,1.6,1.6l-11.4,7.1-1.6-1.7.4-.4c2.6-2.6,4-4.9,4.2-6.8s-.5-3.8-2.1-5.5c-1.2-1.3-2.5-2-3.9-2.1-1.4-.1-2.6.3-3.6,1.3-.7.6-1.2,1.3-1.5,2.1-.6,1.5-1.1,3.9-1.6,7.3-.5,3.5-.9,5.9-1.5,7.3-.6,1.4-1.4,2.6-2.4,3.6-1.7,1.6-3.7,2.4-6,2.4h0ZM178,671.4c1.1,0,1.9.4,2.6,1.1.2.2.6.8,1.3,2.6.6,1.5.9,2.1,1,2.3.3.5.7,1.1,1.3,1.6,1.8,1.9,3.8,3,6.1,3.1,2.3.2,4.2-.5,5.9-2.1.9-.8,1.6-1.9,2.1-3.2.5-1.3,1-3.7,1.4-7.1.4-3.5,1-6,1.6-7.6.4-1,1-1.8,1.8-2.5,1.3-1.1,2.7-1.7,4.4-1.6,1.7.1,3.2.9,4.6,2.4,1.8,1.9,2.6,4.1,2.4,6.3-.2,2.1-1.6,4.5-4.2,7.1l.3.3,9.6-6-.3-.3c-1.3.3-2.4,0-3.2-1-.4-.4-.7-1-1.1-1.9-.9-2.2-2-4-3.2-5.3-2.1-2.3-4.6-3.6-7.4-3.8-2.8-.2-5.1.5-6.9,2.2-1.1,1-2,2.5-2.7,4.3-.7,1.8-1.2,5.2-1.6,9.9-.1,1.9-.4,3.2-.7,4-.4.9-.9,1.6-1.5,2.2-1,.9-2.2,1.3-3.6,1.2-1.4-.1-2.6-.8-3.7-2-1.4-1.5-2-3.4-1.7-5.5.2-2,1.5-4.2,3.7-6.5l-.3-.3-9.1,5.6.3.3c.3,0,.5,0,.7,0h0Z"/>
      </g>
      <g>
        <path class="st1" d="M152.9,645.8l19-20.9c-6.7.2-12.6.9-17.6,2-3,.7-4.9,1.4-5.7,2.2-.4.4-.7.8-.8,1.3,0,.2,0,.7,0,1.5s.1,1.5,0,2c-.2.5-.4,1-.8,1.3-.6.5-1.3.8-2,.7-.8,0-1.5-.4-2.1-1.1-.7-.8-1-1.7-.9-2.7,0-1.1.6-2,1.5-2.9.9-.9,2-1.5,3-2,2.1-.9,5.1-1.7,9.1-2.4,4.8-.8,9.5-1.4,13.9-1.6,4.5-.3,7.7-.4,9.6-.3l.9,1-17.5,19.3,29.6-6.1,1.1,1.2c-7.7,7.3-13.5,13.4-17.5,18.3-1.6,2-2.5,3.6-2.5,4.8,0,.8.4,1.7,1.3,2.7.5.5,1.2,1.2,2,1.9l-1,.9-9.1-6.2c2.1-4,6.1-9,12.2-15.2,2.3-2.3,3.7-3.8,4.3-4.5l-29.1,5.9-.9-1h0Z"/>
        <path class="st1" d="M175.7,667.5l-9.9-6.7.2-.4c2.1-4,6.2-9.1,12.3-15.3,1.4-1.4,2.4-2.4,3.2-3.2l-27.8,5.6-1.5-1.6,18.4-20.3c-6.1.3-11.6.9-16.2,2-3.6.8-4.9,1.5-5.5,2-.3.3-.6.7-.7,1.1,0,0,0,.3,0,1.3.2.9.1,1.6,0,2.2-.2.6-.5,1.1-1,1.6-.7.6-1.5.9-2.4.8-.9,0-1.8-.5-2.5-1.3-.8-.9-1.1-1.9-1.1-3.1.1-1.2.7-2.3,1.7-3.2,1-.9,2-1.6,3.2-2.1,2.1-.9,5.2-1.7,9.2-2.4,4.8-.8,9.5-1.4,14-1.6,4.5-.3,7.7-.4,9.7-.3h.2l1.4,1.6-16.7,18.5,28.3-5.9,1.7,1.8-.4.4c-7.7,7.3-13.5,13.4-17.4,18.2-1.6,1.9-2.3,3.4-2.4,4.5,0,.7.4,1.5,1.2,2.3.5.5,1.2,1.2,2,1.9l.5.4-1.8,1.6h0ZM167.2,660.4l8.4,5.7.2-.2c-.7-.6-1.2-1.1-1.6-1.6-.9-1-1.4-2-1.4-3,0-1.3.9-3,2.6-5.2,3.9-4.8,9.6-10.8,17.1-18l-.5-.6-30.9,6.4,18.2-20.2-.5-.5c-2,0-5.1,0-9.3.3-4.4.3-9.1.8-13.9,1.6-3.9.7-6.9,1.5-8.9,2.3-1,.5-2,1.1-2.9,2-.8.8-1.3,1.6-1.4,2.5,0,.9.2,1.6.8,2.3.5.6,1.1.9,1.7.9.6,0,1.2-.1,1.6-.6.3-.3.5-.6.7-1.1.1-.4.1-1,0-1.7-.2-1.2-.1-1.6,0-1.8.2-.5.5-1,1-1.5.9-.9,2.9-1.6,6-2.3,5.1-1.1,11-1.8,17.7-2h1.3s-19.5,21.4-19.5,21.4l.4.4,30.4-6.1-1,1.2c-.6.6-2,2.1-4.3,4.5-5.8,5.9-9.8,10.8-11.9,14.6h0Z"/>
      </g>
    </g>
    <g>
      <g>
        <path class="st1" d="M662.8,664l-6.5-9.8,1-1c2.5,2.3,4.7,3.5,6.7,3.7,2,.2,3.7-.4,5-1.8,1.1-1.1,1.6-2.2,1.7-3.5,0-1.2-.3-2.3-1.2-3.1-.6-.6-1.3-1-2-1.3-.8-.3-2.1-.5-3.9-.5-4.8-.2-8.2-.7-10.1-1.3-1.9-.6-3.5-1.5-4.6-2.6-1.8-1.8-2.7-4.2-2.6-7.2.1-2.9,1.3-5.6,3.7-7.9s3-2.4,5.3-3.5c.8-.4,1.4-.7,1.7-1,.8-.8,1-1.8.6-3l1-1,7,10.2-1,1c-2.8-2.6-5.2-4-7.4-4.1-2.1-.1-4.1.7-5.8,2.5-1.3,1.3-2,2.8-2.1,4.3,0,1.5.5,2.9,1.6,3.9s1.5,1.2,2.4,1.6c1.6.5,4.1,1,7.5,1.3,3.5.3,5.9.7,7.3,1.2s2.5,1.2,3.5,2.1c1.7,1.7,2.5,3.8,2.5,6.2s-1.1,4.6-3,6.6c-.6.6-1.1,1-1.7,1.4-.3.2-1.1.5-2.3,1.1-1.3.6-2,1-2.3,1.3-.7.7-1,1.8-.7,3.2l-1,1h0Z"/>
        <path class="st1" d="M662.7,664.8l-7.2-10.7,1.7-1.7.4.4c2.4,2.2,4.5,3.4,6.4,3.5,1.8.1,3.4-.4,4.6-1.6,1-1,1.5-2,1.5-3.1,0-1.1-.3-2-1-2.7-.5-.5-1.1-.9-1.8-1.2-.7-.3-2-.4-3.8-.5-4.8-.2-8.3-.7-10.2-1.3-2-.6-3.6-1.5-4.8-2.7-1.9-2-2.9-4.5-2.8-7.6.1-3.1,1.4-5.9,3.8-8.3,1.3-1.3,3.1-2.5,5.5-3.6.7-.3,1.3-.6,1.5-.9.6-.6.8-1.4.5-2.5v-.3c-.1,0,1.5-1.6,1.5-1.6l7.6,11.1-1.7,1.7-.4-.4c-2.7-2.5-5-3.8-7-3.9-2-.1-3.8.7-5.4,2.3-1.2,1.2-1.9,2.6-1.9,3.9,0,1.4.4,2.6,1.4,3.6.6.6,1.4,1.1,2.2,1.4,1.5.5,4,.9,7.4,1.2,3.5.3,6,.7,7.4,1.2,1.4.5,2.7,1.3,3.7,2.3,1.8,1.8,2.7,4,2.6,6.6,0,2.6-1.1,4.9-3.2,7s-1.2,1.1-1.8,1.5c-.4.2-1.1.6-2.4,1.2-1.6.7-2,1.1-2.2,1.2-.6.6-.8,1.5-.5,2.7v.3c0,0-1.6,1.7-1.6,1.7h0ZM656.9,654.3l5.9,8.9.3-.3c-.2-1.4,0-2.5.9-3.4s.7-.6,2.5-1.4c1.2-.6,2-.9,2.3-1.1.5-.3,1-.8,1.6-1.3,1.8-1.8,2.8-3.9,2.9-6.2,0-2.3-.7-4.2-2.3-5.8-.9-.9-2-1.6-3.3-2-1.3-.5-3.7-.9-7.1-1.1-3.5-.3-6.1-.7-7.7-1.3-1-.4-1.9-.9-2.6-1.7-1.2-1.2-1.8-2.7-1.7-4.3,0-1.7.8-3.2,2.2-4.7s3.9-2.8,6.2-2.6c2.2.1,4.6,1.4,7.3,3.9l.3-.3-6.4-9.3-.3.3c.3,1.3,0,2.4-.8,3.3-.4.4-1,.7-1.8,1.1-2.2,1-3.9,2.2-5.1,3.4-2.2,2.2-3.4,4.8-3.5,7.5-.1,2.8.7,5,2.4,6.8,1.1,1.1,2.5,1.9,4.4,2.5,1.9.6,5.2,1,10,1.2,1.9,0,3.2.2,4.1.6.9.3,1.6.8,2.2,1.4,1,1,1.4,2.2,1.4,3.6,0,1.4-.7,2.7-1.9,3.8s-3.3,2.1-5.5,2c-2-.2-4.2-1.3-6.6-3.5l-.3.3h0Z"/>
      </g>
      <g>
        <path class="st1" d="M640.8,657.9c-.8-1-1.4-1.8-2-2.3-1.6-1.6-3.5-2.4-5.7-2.4s-4.1.8-5.7,2.4c-1.3,1.3-2.2,2.8-2.9,4.5-.6,1.7-1.2,4.6-1.8,8.7l-1.3-.2c0-8.3,2-14.4,5.8-18.2s5.3-3.7,8.2-3.4,5.4,1.5,7.3,3.4c2.6,2.6,4.5,6.1,5.6,10.5,1.1,4.4,1.2,8.6.3,12.5-.9,4-2.7,7.3-5.3,9.9-1.9,1.9-3.6,2.9-5.3,3s-3-.3-4.1-1.4c-1.5-1.5-2.3-3.5-2.5-6-.2-3.3.6-7,2.5-11,1.3-2.7,3.5-6.1,6.7-10.1h0ZM642,659.4c-2.3,2.9-3.9,5.6-4.8,7.9-1.2,3.1-1.7,5.9-1.4,8.4.3,2.4,1,4.3,2.2,5.5.7.7,1.6,1.1,2.5,1.1.9,0,1.8-.4,2.7-1.3,1.8-1.8,2.8-4.7,2.9-8.6.1-3.9-1.2-8.3-4-13h0Z"/>
        <path class="st1" d="M637.6,686.8c-1.6,0-2.9-.5-3.9-1.5-1.6-1.6-2.4-3.7-2.6-6.3-.2-3.4.7-7.2,2.6-11.3,1.2-2.7,3.4-6,6.5-9.8-.6-.8-1.2-1.5-1.7-2-1.5-1.5-3.2-2.2-5.3-2.2s-3.8.7-5.4,2.2c-1.2,1.2-2.1,2.6-2.8,4.3-.6,1.7-1.2,4.5-1.7,8.6v.5c0,0-2.4-.4-2.4-.4v-.5c0-8.4,2.1-14.7,5.9-18.6,2.7-2.7,5.6-3.9,8.7-3.5,3,.3,5.6,1.5,7.6,3.6,2.7,2.7,4.6,6.3,5.8,10.8,1.1,4.5,1.3,8.7.3,12.8-.9,4.1-2.8,7.5-5.4,10.2-2,2-3.8,3-5.6,3.1-.2,0-.4,0-.6,0h0ZM633.2,652.6c2.4,0,4.4.9,6.1,2.5s1.3,1.4,2,2.4l.3.3-.3.3c-3.1,4-5.4,7.3-6.6,10-1.9,4-2.7,7.6-2.5,10.8.2,2.4.9,4.2,2.3,5.6.9.9,2.1,1.3,3.6,1.2,1.5-.1,3.2-1.1,5-2.8,2.5-2.5,4.3-5.8,5.2-9.6.9-3.9.8-8-.3-12.3-1.1-4.3-2.9-7.7-5.5-10.3s-4.2-3-7-3.3c-2.7-.3-5.4.8-7.8,3.2-3.6,3.6-5.5,9.4-5.6,17.4h.3c.5-3.8,1.1-6.6,1.7-8.2.7-1.8,1.7-3.3,3-4.6,1.7-1.7,3.8-2.6,6.1-2.6h0ZM640.4,682.8c-1.1,0-2.1-.4-2.9-1.2-1.3-1.3-2.1-3.3-2.4-5.8-.3-2.5.2-5.4,1.5-8.6.9-2.4,2.6-5.1,4.9-8.1l.5-.6.4.7c2.8,4.8,4.2,9.3,4.1,13.3-.1,4.1-1.1,7.1-3,9-1,1-2,1.4-3.1,1.5h0ZM641.9,660.3c-2,2.6-3.4,5-4.3,7.2-1.2,3-1.6,5.8-1.4,8.1.2,2.3.9,4,2.1,5.2.6.6,1.3.9,2.1.9s1.6-.4,2.3-1.1c1.7-1.7,2.6-4.5,2.7-8.2.1-3.6-1.1-7.7-3.5-12h0Z"/>
      </g>
    </g>
  </g>
  <g>
    <g>
      <path class="st1" d="M413.9.5l20,50.9,10.9-38c.9-3.1,1.3-5.6,1.3-7.3s-.4-2.1-1.2-2.8c-.8-.7-2.4-1-4.6-1s-.8,0-1.2,0l.5-1.8h20.9l-.6,1.8c-2.2,0-3.8.2-4.8.7-1.5.7-2.6,1.5-3.4,2.6-1,1.5-2,4.1-3.1,7.8l-15.3,53.5h-1.7l-21.6-54.8-11.5,40.5c-.8,3.1-1.2,5.5-1.2,7.1s.4,2.1,1.2,2.7c.8.6,2.6,1,5.6,1.2l-.5,1.8h-20.4l.6-1.8c2.6,0,4.3-.3,5.2-.7,1.3-.6,2.3-1.3,2.9-2.3.9-1.4,1.9-4.1,3.1-8.1l12.9-45.2c-1.2-1.9-2.6-3.2-4-3.9-1.4-.7-3.6-1.1-6.6-1.2l.5-1.8h16.2Z"/>
      <path class="st1" d="M433.6,67.4h-2.4v-.3c-.1,0-21.2-53.5-21.2-53.5l-11.2,39.2c-.8,3-1.2,5.4-1.2,7s.3,1.8,1,2.4c.5.4,1.8.9,5.3,1.2h.6s-.7,2.7-.7,2.7h-21.4l1-2.7h.3c2.5,0,4.2-.2,5-.6,1.2-.6,2.1-1.3,2.7-2.1.9-1.3,1.9-4,3-8l12.8-45c-1.1-1.7-2.4-2.9-3.7-3.6-1.4-.7-3.5-1.1-6.4-1.2h-.6s.8-2.7.8-2.7h16.9l19.7,50,10.5-36.7c.9-3.1,1.3-5.5,1.3-7.1s-.4-1.8-1.1-2.4c-.8-.6-2.2-.9-4.4-.9s-.8,0-1.2,0h-.6c0,0,.8-2.7.8-2.7h21.9l-.9,2.7h-.8c-1.9,0-3.2.2-4.1.6-1.4.6-2.5,1.5-3.2,2.5-1,1.4-2,4.1-3,7.7l-15.4,53.9h0ZM431.9,66.5h1.1l15.2-53.2c1.1-3.8,2.1-6.4,3.1-8,.8-1.2,2-2.1,3.6-2.8,1-.5,2.5-.7,4.5-.7h.1l.3-.9h-19.9l-.3.9c.2,0,.4,0,.6,0,2.4,0,4,.4,4.9,1.1.9.8,1.4,1.8,1.4,3.2s-.4,4.2-1.3,7.4l-11.3,39.3L413.6.9h-15.6l-.3.9c2.8.1,4.8.6,6.2,1.3,1.5.8,2.9,2.1,4.2,4.1v.2c.1,0-12.8,45.4-12.8,45.4-1.2,4.1-2.2,6.8-3.1,8.3-.7,1-1.7,1.8-3.1,2.4-.9.4-2.6.6-5,.7l-.3.9h19.4l.2-.9c-2.7-.2-4.5-.7-5.3-1.3-.9-.7-1.3-1.8-1.3-3.1s.4-4.1,1.3-7.2l11.9-41.8,22,55.8h0Z"/>
    </g>
    <g>
      <path class="st1" d="M395.8,827l5.4-24.1h1.7c-.2,2.3-.4,4.3-.4,5.8,0,4.4,1.4,8,4.2,10.7,2.8,2.7,6.5,4.1,11,4.1s7.3-1.3,9.5-3.8,3.2-5.5,3.2-8.9-.5-4.2-1.4-6c-1.5-2.7-5.5-7.3-12.1-14-3.1-3.2-5.2-5.5-6.1-7.1-1.5-2.6-2.2-5.3-2.2-8.2,0-4.5,1.7-8.4,5.1-11.6,3.4-3.2,7.7-4.8,13-4.8s3.5.2,5.1.5c1,.2,2.8.8,5.4,2,1.8.7,2.8,1.1,3,1.2.5,0,1,.1,1.5.1,1,0,1.8-.2,2.4-.7.6-.5,1.4-1.5,2.4-3.1h1.8l-5,21.6h-1.7c.2-1.9.2-3.5.2-4.6,0-3.9-1.3-7.1-3.8-9.5s-5.9-3.7-10.1-3.7-6,1-8.1,2.9c-2.1,1.9-3.1,4.2-3.1,6.8s.7,4.3,2,6.4c1.3,2,4.4,5.3,9.2,9.9,4.8,4.6,7.9,8.2,9.2,10.7s2.1,5.3,2.1,8.2-.9,6.5-2.6,9.6-4.2,5.5-7.5,7.2c-3.3,1.7-6.8,2.5-10.7,2.5s-3.7-.2-5.4-.5c-1.7-.4-4.3-1.2-8-2.6-1.2-.5-2.3-.7-3.1-.7-1.9,0-3.4,1.3-4.4,3.8h-1.8,0Z"/>
      <path class="st1" d="M418.5,827.5c-1.9,0-3.8-.2-5.5-.5-1.7-.4-4.4-1.2-8-2.6-1.2-.5-2.2-.7-2.9-.7-1.7,0-3,1.2-4,3.5v.3h-2.9l5.6-25h2.5v.5c-.3,2.3-.4,4.2-.4,5.7,0,4.2,1.4,7.8,4.1,10.4,2.7,2.6,6.3,4,10.6,4s7.1-1.2,9.1-3.7c2.1-2.5,3.1-5.3,3.1-8.6s-.5-4-1.4-5.7c-1.5-2.6-5.5-7.3-12-13.9-3.2-3.2-5.2-5.6-6.1-7.2-1.5-2.6-2.3-5.5-2.3-8.4,0-4.6,1.8-8.7,5.2-12,3.5-3.3,7.9-5,13.3-5s3.6.2,5.2.5c1,.2,2.8.9,5.5,2,1.7.7,2.7,1.1,3,1.2.4,0,.9,0,1.4,0,.9,0,1.6-.2,2.1-.6.6-.4,1.3-1.4,2.2-3v-.2h2.8l-5.2,22.5h-2.5v-.5c.2-1.9.3-3.5.3-4.6,0-3.7-1.2-6.8-3.7-9.2-2.5-2.4-5.8-3.6-9.8-3.6s-5.8.9-7.8,2.8c-2,1.8-3,4-3,6.5s.6,4.2,1.9,6.1c1.3,2,4.4,5.3,9.1,9.8,4.8,4.6,7.9,8.2,9.3,10.8,1.4,2.6,2.1,5.5,2.1,8.4s-.9,6.7-2.6,9.8c-1.8,3.2-4.4,5.6-7.7,7.4-3.3,1.7-7,2.6-10.9,2.6h0ZM402,822.7c.9,0,2,.2,3.3.8,3.6,1.3,6.3,2.2,7.9,2.5s3.4.5,5.3.5c3.8,0,7.3-.8,10.5-2.5,3.2-1.6,5.6-4,7.3-7,1.7-3,2.5-6.2,2.5-9.4s-.7-5.5-2-8c-1.4-2.5-4.4-6.1-9.2-10.6-4.8-4.6-7.9-7.9-9.2-10-1.4-2.1-2.1-4.3-2.1-6.6s1.1-5.1,3.3-7.1c2.2-2,5-3,8.4-3s7.8,1.3,10.5,3.8c2.6,2.5,4,5.8,4,9.8s0,2.5-.2,4.2h.8l4.8-20.7h-1c-.9,1.5-1.7,2.5-2.3,3-.7.5-1.6.8-2.7.8s-1.1,0-1.6-.1h0c-.2-.1-1.2-.5-3-1.2-2.6-1.1-4.4-1.8-5.3-1.9-1.6-.3-3.2-.5-5-.5-5.1,0-9.4,1.6-12.7,4.7-3.3,3.1-4.9,6.9-4.9,11.3s.7,5.4,2.1,7.9c.9,1.5,2.9,3.9,6,7,6.5,6.7,10.6,11.4,12.1,14.1,1,1.9,1.5,3.9,1.5,6.2,0,3.5-1.1,6.6-3.4,9.2-2.2,2.7-5.6,4-9.8,4s-8.4-1.4-11.3-4.2c-2.9-2.8-4.3-6.5-4.3-11s.1-3.2.3-5.3h-.8l-5.1,23.2h1c1.1-2.5,2.7-3.8,4.7-3.8h0Z"/>
    </g>
    <g>
      <g>
        <path class="st1" d="M66.9,444.2l-54.1-5.6c-2.1-.2-3.6-.4-4.8-.4-1.9,0-3.3.5-4.2,1.6-1,1-1.5,3-1.5,5.7l-1.8-.5v-24.3l1.8.5c0,3.2.5,5.5,1.8,6.7,1.2,1.2,4.1,2,8.8,2.4l35.1,3.6-38.1-24.7c-.7,0-1.2,0-1.7,0-1.8,0-3.2.5-4.1,1.6-1,1-1.5,3.3-1.8,6.8l-1.8-.4v-26.3l1.8.5c0,3,.3,5.1.8,6.1.4.8.9,1.4,1.7,1.9.8.5,2.1,1,4,1.3.6,0,4.3.5,11.1,1.2,6.9.7,16.2,1.7,28,3.1l-31.2-20.5c-3.4-2.2-5.8-3.6-7.2-4.2-1.4-.6-2.6-.9-3.5-.9s-1.7.4-2.3,1.1-1.1,2.1-1.3,3.9l-1.8-.4v-19.3l1.8.5c.1,1.7.5,3.2,1.2,4.5s2.1,2.9,4.1,4.6c1.2,1,4.2,3.1,9.1,6.3l50.3,32.6v1.8l-50.3-5.3,50.3,32.7v1.6h0Z"/>
        <path class="st1" d="M2.7,446.2l-2.7-.8v-25.3l2.7.8v.4c0,3.1.5,5.2,1.6,6.3,1.1,1.1,4,1.9,8.5,2.3l33.2,3.4-36.4-23.6c-.6,0-1.1,0-1.5,0-1.7,0-2.9.5-3.8,1.4-.9,1-1.4,3.2-1.7,6.5v.5s-2.7-.5-2.7-.5v-27.3l2.7.8v.3c0,2.9.3,4.9.7,6,.3.7.8,1.2,1.5,1.7.7.5,2,.9,3.8,1.2.6,0,4.5.5,11.1,1.2,6.4.6,15.2,1.6,26.1,2.9l-29.6-19.5c-3.4-2.2-5.8-3.6-7.1-4.1-1.3-.5-2.4-.8-3.3-.8s-1.4.3-2,1c-.6.7-1,1.9-1.2,3.7v.5s-2.7-.5-2.7-.5v-20.3l2.7.7v.3c.1,1.6.5,3.1,1.2,4.3.7,1.3,2,2.8,3.9,4.5,1.1,1,4.2,3.1,9.1,6.3l50.5,32.7v2.5l-48.9-5.1,48.9,31.8v2.4h-.5s-54.1-5.6-54.1-5.6c-2-.2-3.6-.4-4.7-.4-1.7,0-3,.5-3.9,1.4-.9,1-1.3,2.8-1.4,5.5v.6s0,0,0,0ZM.9,444.7l.9.3c.1-2.6.7-4.4,1.6-5.4,1-1.1,2.6-1.7,4.6-1.7s2.7.1,4.8.4l53.6,5.5v-.8l-50.1-32.5.3-.9,49.8,5.2v-1l-50.1-32.5c-5-3.3-8-5.3-9.1-6.3-2-1.8-3.4-3.4-4.2-4.8-.7-1.3-1.1-2.8-1.3-4.4l-.9-.2v18.3l.9.2c.2-1.7.7-2.9,1.4-3.7.8-.9,1.7-1.3,2.7-1.3s2.2.3,3.7.9c1.4.6,3.8,2,7.3,4.2l31.2,20.5-.3.8c-11.8-1.4-21.2-2.4-28-3.1-4.7-.5-10.4-1.1-11.1-1.2-2-.3-3.4-.8-4.2-1.4-.8-.6-1.5-1.3-1.8-2.1-.5-1.1-.8-3.1-.8-6l-.9-.3v25.3l.9.2c.3-3.3.9-5.5,1.9-6.6,1-1.1,2.5-1.7,4.4-1.7s1,0,1.7,0h.1l38.2,24.8-.3.9-35.1-3.6c-4.8-.5-7.8-1.3-9.1-2.6-1.3-1.2-1.9-3.4-1.9-6.6l-.9-.3v23.4h0Z"/>
      </g>
      <g>
        <path class="st1" d="M826.7,407.1l-25.7-7.4v6.1c0,4.4.7,7.5,2,9.5s3.8,3.6,7.3,5v1.8l-23.6-6.7v-1.9c2,.6,3.7.8,5.1.8s2.4-.3,3.3-.8c.8-.6,1.5-1.3,1.8-2.3.4-1,.6-3,.6-6.2v-6.2l-21.5-6.2c-2.1-.6-3.7-.9-4.8-.9s-1.6.4-2.2,1.2c-.4.6-.7,1.9-.7,4v5.8c0,6.2,1.1,11.2,3.3,15s6,7.1,11.5,10.1v1.8l-18-6.1v-50.2l1.8.6c0,2.5.3,4.2.7,5.1.6,1.3,1.3,2.2,2.2,2.8,1.3.8,4.1,1.8,8.3,3l39.2,11.4c3.2.9,5.6,1.3,7.3,1.3s2.1-.4,2.8-1.2c.7-.8,1-2.5,1-4.9v-1l1.8.5v46.6l-15.7-4v-1.8c1.5.2,2.7.4,3.7.4,1.7,0,3.1-.4,4.3-1.2,1.5-1.1,2.6-2.7,3.3-4.8.6-1.5.9-5.1.9-10.6v-8.2h0Z"/>
        <path class="st1" d="M830.7,438l-16.6-4.2v-2.7h.5c1.4.3,2.7.4,3.6.4,1.6,0,3-.4,4-1.2,1.4-1,2.5-2.6,3.2-4.5.6-1.5.9-5,.9-10.4v-7.9l-24.8-7.2v5.5c0,4.2.6,7.3,1.9,9.2,1.3,1.9,3.7,3.5,7.1,4.8h.3v2.8l-24.5-6.9v-2.9l.6.2c3.7,1,6.4,1.1,8,0,.8-.5,1.3-1.2,1.7-2.1.4-.9.6-2.9.6-6v-5.8l-21.2-6.1c-2-.6-3.6-.9-4.6-.9s-1.3.3-1.8,1c-.2.3-.5,1.1-.5,3.8v5.8c0,6.1,1.1,11.1,3.2,14.7,2.2,3.7,5.9,7,11.3,9.9h.2v2.8l-19-6.4v-51.2l2.7.9v.3c0,2.4.2,4.1.6,4.9.5,1.2,1.2,2.1,2,2.6,1.2.8,4,1.8,8.1,3l39.2,11.4c3.1.9,5.5,1.3,7.1,1.3s1.9-.4,2.5-1.1c.6-.7.9-2.3.9-4.6v-1.6l2.7.8v47.6h0ZM815,433l14.8,3.8v-45.7l-.9-.3v.4c0,2.6-.4,4.3-1.2,5.2-.8.9-1.8,1.4-3.2,1.4s-4.2-.5-7.4-1.3l-39.2-11.4c-4.3-1.2-7-2.2-8.4-3.1-1-.6-1.7-1.6-2.4-3-.4-.9-.6-2.5-.7-4.9l-.9-.3v49.2l17.1,5.8v-.9c-5.4-3-9.2-6.4-11.4-10.1-2.2-3.8-3.4-8.9-3.4-15.2v-5.8c0-2.3.2-3.7.8-4.3.7-.9,1.6-1.4,2.6-1.4s2.7.3,4.9.9l21.8,6.3v6.5c0,3.2-.2,5.3-.6,6.3-.4,1-1.1,1.9-2,2.5-1.7,1.2-4.5,1.2-8.2.2v1l22.6,6.4v-.9c-3.5-1.4-5.9-3.1-7.3-5-1.4-2-2.1-5.3-2.1-9.7v-6.7l26.6,7.7v8.6c0,5.6-.3,9.1-.9,10.8-.8,2.1-2,3.8-3.5,5-1.2.9-2.8,1.3-4.6,1.3s-2,0-3.2-.3v.9h0Z"/>
      </g>
    </g>
  </g>
</svg>