<?xml version="1.0" encoding="UTF-8"?>
<svg id="Layer_1" data-name="Layer 1" xmlns="http://www.w3.org/2000/svg" viewBox="0 0 841.89 182.67">
  <defs>
    <style>
      .cls-1 {
        fill: #000212;
      }

      .cls-2 {
        fill: #fff;
      }
    </style>
  </defs>
  <rect class="cls-1" x="0" width="841.89" height="182.67"/>
  <g>
    <path class="cls-2" d="M541.71,74.96c-2.22-1.41-3.89-3.34-5.01-5.79l-1.25,7.79h-5.08l8.33-52.56h5.36l-3.25,20.59c2.03-2.55,4.44-4.5,7.24-5.85,2.8-1.35,5.8-2.02,8.99-2.02,3.69,0,6.92.83,9.69,2.5,2.29,1.41,4.05,3.28,5.27,5.63,1.23,2.35,1.84,5.05,1.84,8.1,0,1.22-.11,2.5-.32,3.86-.6,3.93-2,7.41-4.22,10.44-2.17,3.05-4.88,5.42-8.13,7.12-3.25,1.69-6.75,2.54-10.49,2.54-3.43,0-6.42-.79-8.97-2.36ZM558.83,70.67c2.45-1.31,4.51-3.13,6.17-5.47,1.66-2.34,2.71-4.99,3.16-7.97.17-1,.25-2.04.25-3.11,0-1.84-.29-3.52-.86-5.04-.98-2.31-2.46-4.09-4.45-5.35-1.99-1.25-4.39-1.88-7.21-1.88s-5.49.62-7.83,1.86c-2.48,1.31-4.54,3.12-6.17,5.43-1.63,2.31-2.7,5.01-3.2,8.08-.14.95-.21,1.88-.21,2.79,0,1.91.32,3.65.97,5.22.88,2.34,2.33,4.15,4.34,5.43,2.01,1.29,4.42,1.93,7.2,1.93s5.47-.64,7.83-1.93Z"/>
    <path class="cls-2" d="M596.37,24.4l-8.33,52.56h-5.36l8.33-52.56h5.36Z"/>
    <path class="cls-2" d="M608.95,75.03c-1.69-1.53-2.54-3.71-2.54-6.54,0-.81.07-1.68.21-2.61l3.79-23.88h-7.08l.72-4.43h7.08l1.36-8.72h5.29l-1.36,8.72h12.01l-.72,4.43h-12.01l-3.72,23.53c-.1.55-.14,1.13-.14,1.75,0,1.76.5,3.12,1.5,4.06,1,.94,2.45,1.41,4.36,1.41,2.36,0,4.42-.67,6.19-2l1.25,3.79c-1.19.93-2.56,1.63-4.09,2.09-1.54.46-3.12.7-4.74.7-3.22,0-5.67-.76-7.37-2.29Z"/>
    <path class="cls-2" d="M639.56,76.19c-.83-.8-1.25-1.83-1.25-3.09,0-1.1.29-2.11.86-3.04.57-.93,1.33-1.66,2.27-2.18.94-.52,1.91-.79,2.91-.79,1.22,0,2.22.39,3,1.18.79.79,1.18,1.81,1.18,3.07,0,1.12-.27,2.15-.82,3.08-.55.93-1.28,1.66-2.18,2.18-.91.52-1.85.79-2.82.79-1.26,0-2.31-.4-3.15-1.2Z"/>
    <path class="cls-2" d="M528.58,158.27v-52.56h25.89c5.82,0,10.96,1.05,15.45,3.15,4.53,2.17,8.03,5.22,10.51,9.15,2.48,3.93,3.72,8.56,3.72,13.87s-1.26,10.11-3.79,14.09c-2.5,3.96-5.98,7-10.44,9.12-4.46,2.12-9.61,3.18-15.45,3.18h-25.89ZM546.32,119.51v24.96h7.44c2.48,0,4.67-.48,6.58-1.43,1.91-.93,3.37-2.35,4.4-4.25,1.02-1.91,1.54-4.21,1.54-6.9s-.52-4.91-1.57-6.72c-1.03-1.86-2.47-3.27-4.34-4.22-1.87-.95-4.07-1.43-6.6-1.43h-7.44Z"/>
    <path class="cls-2" d="M611.28,138.46v19.81h-17.38v-52.56h44.26v13.37h-26.89v6.58h23.81v12.8h-23.81Z"/>
    <path class="cls-2" d="M663.87,158.27h-17.73v-52.56h26.6c4.79,0,9.03.81,12.73,2.43,3.6,1.62,6.37,3.92,8.31,6.9,1.94,2.98,2.91,6.47,2.91,10.48s-.98,7.53-2.93,10.51c-2,2.98-4.65,5.22-7.94,6.72l10.65,15.52h-18.88l-8.72-12.94h-5.01v12.94ZM663.87,119.37v12.3h7.72c2.38,0,4.18-.54,5.4-1.61s1.82-2.59,1.82-4.54-.61-3.44-1.82-4.52c-1.22-1.08-3.02-1.63-5.4-1.63h-7.72Z"/>
    <path class="cls-2" d="M722.79,134.39v23.88h-17.23v-52.56h14.59l19.95,23.88v-23.88h17.23v52.56h-14.52l-20.02-23.88Z"/>
    <path class="cls-2" d="M801.99,119.44v38.83h-17.73v-38.83h-15.37v-13.73h48.56v13.73h-15.45Z"/>
  </g>
  <g>
    <polygon class="cls-2" points="140.43 42.3 42.22 68.61 114.11 140.5 140.43 42.3"/>
    <rect class="cls-2" x="182.67" y="42.27" width="98.13" height="98.13"/>
    <circle class="cls-2" cx="372.13" cy="91.33" r="49.06"/>
  </g>
</svg>